# Blender 4.0.2
# www.blender.org
mtllib board.mtl
g Board.002_Plane.014
v -98.891937 -0.807330 391.777466
v 226.379883 -0.807330 391.777466
v -98.891937 -0.807330 -211.794495
v 226.379883 -0.807330 -211.794495
v -98.891937 -0.807330 27.340363
v 226.379883 -0.807330 27.340363
v 50.502319 -0.807330 392.233704
v 50.502319 -0.807330 -211.794495
v 50.502319 -0.807330 27.340363
v -42.783985 -0.807330 -211.794495
v -42.783985 -0.807330 27.340363
v -29.609089 -0.807330 392.260437
v -5.723392 -0.881297 392.260437
v -18.898296 -0.807330 -211.794495
v -18.898296 -0.807330 23.009415
v 19.042480 -0.881297 392.388672
v 19.042484 -0.807330 -211.794495
v 19.042484 -0.807330 23.009415
v -98.891937 -0.807330 104.583527
v 226.379883 -0.807330 104.583527
v 50.502319 -0.807330 118.194702
v -62.985424 -0.807330 115.066475
v -9.860744 -59.881294 115.066475
v 19.042484 -59.881294 118.194702
v 50.502319 -36.873001 104.583527
v 50.502319 -36.873001 27.340363
v -18.898296 -36.873001 23.009415
v -42.783985 -36.873001 27.340363
v -42.783985 -36.873001 104.583527
v 19.042484 -36.873001 23.009415
v -18.898296 -36.873001 104.583527
v 19.042484 -36.873001 104.583527
v -98.891937 -0.807330 348.000092
v 226.379883 -0.807330 348.000092
v 50.502319 -0.807330 349.005737
v -33.746449 -0.807330 348.483063
v -9.860752 -59.881294 348.483063
v 19.042480 -59.881294 348.611267
v -98.891937 -2.697737 391.777466
v 226.379883 -2.697737 391.777466
v -98.891937 -2.697737 -211.794495
v 226.379883 -2.697737 -211.794495
v -98.891937 -2.697737 27.340363
v 226.379883 -2.697737 27.340363
v 51.613888 -2.357947 392.106140
v 50.502319 -2.697737 -211.794495
v 51.562019 -2.500639 25.514465
v -42.783985 -2.697737 -211.794495
v -43.844814 -2.449365 25.088921
v -30.994114 -2.226983 392.130310
v -6.628101 -2.253940 392.057526
v -18.898296 -2.697737 -211.794495
v -19.008480 -2.165078 18.814713
v 20.135773 -2.308568 392.186035
v 19.042484 -2.697737 -211.794495
v 19.126602 -2.159982 18.795891
v -98.891937 -2.697737 104.583527
v 226.379883 -2.697737 104.583527
v 52.603104 -2.248478 118.443253
v -65.498886 -2.581267 115.078110
v -98.891937 -2.697737 348.000092
v 226.379883 -2.697737 348.000092
v 52.072662 -2.399492 350.453888
v -35.358036 -2.373158 350.062012
v -62.985424 -0.807330 115.066475
v -9.860744 -59.881294 115.066475
v -33.746449 -0.807330 348.483063
v -9.860752 -59.881294 348.483063
vn -0.0000 1.0000 -0.0000
vn -0.0416 0.4570 0.8885
vn 0.1784 -0.0000 0.9840
vn -0.1364 -0.0000 0.9907
vn -0.8826 0.4700 -0.0000
vn 0.9606 0.2519 0.1176
vn -0.6461 0.6882 -0.3301
vn 0.6000 0.7822 -0.1677
vn -1.0000 -0.0000 -0.0000
vn -0.0000 -0.0000 1.0000
vn -0.0006 -1.0000 0.0004
vn -0.0018 -1.0000 0.0015
vn -0.0055 -1.0000 0.0016
vn 0.0022 -1.0000 0.0005
vn 0.0041 -1.0000 -0.0003
vn 0.0061 -1.0000 0.0017
vn 0.0001 -1.0000 0.0023
vn 0.0045 -1.0000 0.0001
vn -0.0022 -1.0000 -0.0003
vn -0.0018 -1.0000 0.0005
vn 0.0060 -1.0000 0.0014
vn 0.0022 -0.0363 0.9993
vn 1.0000 -0.0000 -0.0000
vn -0.0000 -0.0000 -1.0000
vn 0.0038 -0.1074 0.9942
vn -0.0060 -0.0368 0.9993
vn 0.0012 -0.1194 0.9928
vn -0.0051 -0.1436 0.9896
vn -0.0000 1.0000 0.0011
vn 0.0058 0.0030 -1.0000
vn 0.8366 0.5453 -0.0524
vt 0.229756 0.301860
vt 0.497667 0.301860
vt 0.497667 0.498169
vt 0.229756 0.498169
vt 0.229756 0.227276
vt 0.497667 0.238450
vt 0.469739 0.709339
vt 0.425710 0.709344
vt 0.425714 0.649015
vt 0.483509 0.649015
vt 0.181834 0.305415
vt 0.181834 0.498169
vt 0.002186 0.301860
vt 0.087654 0.301860
vt 0.087654 0.498169
vt 0.002186 0.498169
vt 0.002186 0.238450
vt 0.056882 0.229844
vt 0.124039 0.305415
vt 0.124039 0.498169
vt 0.796041 0.608051
vt 0.796033 0.644434
vt 0.701504 0.644434
vt 0.701512 0.608051
vt 0.796033 0.502333
vt 0.796041 0.550256
vt 0.701512 0.550256
vt 0.701504 0.502333
vt 0.167675 0.502647
vt 0.211702 0.502541
vt 0.211702 0.691694
vt 0.167675 0.694262
vt 0.002186 0.038625
vt 0.101421 0.038229
vt 0.540112 0.502656
vt 0.697132 0.502333
vt 0.697132 0.691809
vt 0.540112 0.691809
vt 0.229756 0.037800
vt 0.497667 0.038625
vt 0.425710 0.550463
vt 0.425710 0.502541
vt 0.489120 0.502541
vt 0.492675 0.550463
vt 0.425710 0.644643
vt 0.425710 0.608258
vt 0.492675 0.608258
vt 0.489120 0.644643
vt 0.216074 0.505710
vt 0.288631 0.502541
vt 0.280363 0.599398
vt 0.216966 0.599898
vt 0.602719 0.702982
vt 0.600343 0.702982
vt 0.288631 0.663658
vt 0.279706 0.602474
vt 0.697132 0.766393
vt 0.602719 0.766393
vt 0.229756 0.002313
vt 0.497667 0.002688
vt 0.002186 0.002688
vt 0.107723 0.002291
vt 0.768336 0.303148
vt 0.769951 0.497959
vt 0.502040 0.497961
vt 0.502040 0.301652
vt 0.766748 0.226860
vt 0.502040 0.238242
vt 0.817742 0.308661
vt 0.817873 0.497959
vt 0.997520 0.301649
vt 0.997520 0.497958
vt 0.912052 0.497959
vt 0.913667 0.303496
vt 0.997520 0.238240
vt 0.946653 0.229624
vt 0.875667 0.497959
vt 0.875833 0.308645
vt 0.997520 0.038416
vt 0.900739 0.036721
vt 0.767557 0.036401
vt 0.502040 0.038418
vt 0.768256 0.002207
vt 0.502040 0.002481
vt 0.997520 0.002479
vt 0.894091 0.002186
vt 0.520694 0.997814
vt 0.520694 0.961876
vt 0.525642 0.961876
vt 0.525642 0.997814
vt 0.506995 0.502333
vt 0.506994 0.770244
vt 0.502930 0.768551
vt 0.502040 0.502333
vt 0.535740 0.502333
vt 0.535427 0.698607
vt 0.530490 0.698607
vt 0.530802 0.502333
vt 0.516322 0.502333
vt 0.516322 0.587801
vt 0.511367 0.587801
vt 0.511367 0.502333
vt 0.520694 0.698642
vt 0.520694 0.502332
vt 0.525642 0.502332
vt 0.525642 0.698642
vt 0.535327 0.762006
vt 0.530389 0.762006
vt 0.506800 0.818166
vt 0.503059 0.816501
vt 0.516322 0.729902
vt 0.516322 0.997814
vt 0.511367 0.997814
vt 0.511367 0.729902
vt 0.516322 0.624186
vt 0.511367 0.624186
vt 0.506994 0.892276
vt 0.506994 0.997814
vt 0.502039 0.997814
vt 0.503273 0.894386
vt 0.506800 0.855892
vt 0.503202 0.857270
vt 0.516322 0.681980
vt 0.511367 0.681980
vt 0.520694 0.762052
vt 0.525642 0.762052
vt 0.535009 0.961795
vt 0.530072 0.961795
vt 0.534952 0.997726
vt 0.530014 0.997726
vt 0.144108 0.002291
vt 0.181834 0.002186
vt 0.421338 0.502541
vt 0.373415 0.657376
vt 0.329387 0.657376
vt 0.293003 0.502541
vt 0.161047 0.693313
vt 0.003695 0.694117
vt 0.002186 0.502541
vt 0.163303 0.502541
s 0
usemtl BoardTexture
f 9/1/1 6/2/1 4/3/1 8/4/1
f 21/5/1 20/6/1 6/2/1 9/1/1
f 23/7/2 24/8/2 32/9/2 31/10/2
f 18/11/1 9/1/1 8/4/1 17/12/1
f 5/13/1 11/14/1 10/15/1 3/16/1
f 19/17/1 22/18/1 11/14/1 5/13/1
f 11/14/1 15/19/1 14/20/1 10/15/1
f 15/21/3 11/22/3 28/23/3 27/24/3
f 15/19/1 18/11/1 17/12/1 14/20/1
f 9/25/4 18/26/4 30/27/4 26/28/4
f 37/29/1 38/30/1 24/31/1 23/32/1
f 33/33/1 36/34/1 22/18/1 19/17/1
f 38/35/5 35/36/5 21/37/5 24/38/5
f 35/39/1 34/40/1 20/6/1 21/5/1
f 32/41/1 25/42/1 26/43/1 30/44/1
f 29/45/1 31/46/1 27/47/1 28/48/1
f 31/46/1 32/41/1 30/44/1 27/47/1
f 11/49/6 22/50/6 29/51/6 28/52/6
f 24/38/7 21/37/7 25/53/7 32/54/7
f 22/50/8 23/55/8 31/56/8 29/51/8
f 21/37/9 9/57/9 26/58/9 25/53/9
f 18/26/10 15/21/10 27/24/10 30/27/10
f 7/59/1 2/60/1 34/40/1 35/39/1
f 1/61/1 12/62/1 36/34/1 33/33/1
f 47/63/11 46/64/11 42/65/11 44/66/11
f 59/67/12 47/63/12 44/66/12 58/68/12
f 56/69/13 55/70/13 46/64/13 47/63/13
f 43/71/14 41/72/14 48/73/14 49/74/14
f 57/75/15 43/71/15 49/74/15 60/76/15
f 49/74/16 48/73/16 52/77/16 53/78/16
f 53/78/17 52/77/17 55/70/17 56/69/17
f 61/79/18 57/75/18 60/76/18 64/80/18
f 63/81/19 59/67/19 58/68/19 62/82/19
f 45/83/20 63/81/20 62/82/20 40/84/20
f 39/85/21 61/79/21 64/80/21 50/86/21
f 1/87/9 33/88/9 61/89/9 39/90/9
f 2/91/22 7/92/22 45/93/22 40/94/22
f 4/95/23 6/96/23 44/97/23 42/98/23
f 3/99/24 10/100/24 48/101/24 41/102/24
f 5/103/9 3/104/9 41/105/9 43/106/9
f 6/96/23 20/107/23 58/108/23 44/97/23
f 7/92/25 16/109/25 54/110/25 45/93/25
f 8/111/24 4/112/24 42/113/24 46/114/24
f 10/100/24 14/115/24 52/116/24 48/101/24
f 12/117/26 1/118/26 39/119/26 50/120/26
f 13/121/27 12/117/27 50/120/27 51/122/27
f 14/115/24 17/123/24 55/124/24 52/116/24
f 16/109/28 13/121/28 51/122/28 54/110/28
f 17/123/24 8/111/24 46/114/24 55/124/24
f 19/125/9 5/103/9 43/106/9 57/126/9
f 20/107/23 34/127/23 62/128/23 58/108/23
f 33/88/9 19/125/9 57/126/9 61/89/9
f 34/127/23 2/129/23 40/130/23 62/128/23
f 13/131/29 16/132/29 7/59/29 35/39/29 36/34/29 12/62/29
f 35/133/30 38/134/30 37/135/30 36/136/30
f 67/137/31 68/138/31 66/139/31 65/140/31
