# Blender 4.0.2
# www.blender.org
g Board_Plane.010
v -98.891937 -0.807330 391.777466
v 226.379883 -0.807330 391.777466
v -98.891937 -0.807330 -211.794495
v 226.379883 -0.807330 -211.794495
v -98.891937 -0.807330 27.340363
v 226.379883 -0.807330 27.340363
v 50.502319 -0.807330 392.233704
v 50.502319 -0.807330 -211.794495
v 50.502319 -0.807330 27.340363
v -42.783985 -0.807330 -211.794495
v -42.783985 -0.807330 27.340363
v -29.609089 -0.807330 392.260437
v -5.723392 -0.881297 392.260437
v -18.898296 -0.807330 -211.794495
v -18.898296 -0.807330 23.009415
v 19.042480 -0.881297 392.388672
v 19.042484 -0.807330 -211.794495
v 19.042484 -0.807330 23.009415
v -98.891937 -0.807330 104.583527
v 226.379883 -0.807330 104.583527
v 50.502319 -0.807330 118.194702
v -62.985424 -0.807330 115.066475
v -9.860744 -59.881294 115.066475
v 19.042484 -59.881294 118.194702
v 50.502319 -36.873001 104.583527
v 50.502319 -36.873001 27.340363
v -18.898296 -36.873001 23.009415
v -42.783985 -36.873001 27.340363
v -42.783985 -36.873001 104.583527
v 19.042484 -36.873001 23.009415
v -18.898296 -36.873001 104.583527
v 19.042484 -36.873001 104.583527
v -98.891937 -0.807330 348.000092
v 226.379883 -0.807330 348.000092
v 50.502319 -0.807330 349.005737
v -33.746449 -0.807330 348.483063
v -9.860752 -59.881294 348.483063
v 19.042480 -59.881294 348.611267
v -98.891937 -2.697737 391.777466
v 226.379883 -2.697737 391.777466
v -98.891937 -2.697737 -211.794495
v 226.379883 -2.697737 -211.794495
v -98.891937 -2.697737 27.340363
v 226.379883 -2.697737 27.340363
v 51.613888 -2.357947 392.106140
v 50.502319 -2.697737 -211.794495
v 51.562019 -2.500639 25.514465
v -42.783985 -2.697737 -211.794495
v -43.844814 -2.449365 25.088921
v -30.994114 -2.226983 392.130310
v -6.628101 -2.253940 392.057526
v -18.898296 -2.697737 -211.794495
v -19.008480 -2.165078 18.814713
v 20.135773 -2.308568 392.186035
v 19.042484 -2.697737 -211.794495
v 19.126602 -2.159982 18.795891
v -98.891937 -2.697737 104.583527
v 226.379883 -2.697737 104.583527
v 52.603104 -2.248478 118.443253
v -65.498886 -2.581267 115.078110
v -98.891937 -2.697737 348.000092
v 226.379883 -2.697737 348.000092
v 52.072662 -2.399492 350.453888
v -35.358036 -2.373158 350.062012
v -62.985424 -0.807330 115.066475
v -9.860744 -59.881294 115.066475
v -33.746449 -0.807330 348.483063
v -9.860752 -59.881294 348.483063
vn -0.0000 1.0000 -0.0000
vn -0.0416 0.4570 0.8885
vn 0.1784 -0.0000 0.9840
vn -0.1364 -0.0000 0.9907
vn -0.8826 0.4700 -0.0000
vn 0.9606 0.2519 0.1176
vn -0.6461 0.6882 -0.3301
vn 0.6000 0.7822 -0.1677
vn -1.0000 -0.0000 -0.0000
vn -0.0000 -0.0000 1.0000
vn -0.0006 -1.0000 0.0004
vn -0.0018 -1.0000 0.0015
vn -0.0055 -1.0000 0.0016
vn 0.0022 -1.0000 0.0005
vn 0.0041 -1.0000 -0.0003
vn 0.0061 -1.0000 0.0017
vn 0.0001 -1.0000 0.0023
vn 0.0045 -1.0000 0.0001
vn -0.0022 -1.0000 -0.0003
vn -0.0018 -1.0000 0.0005
vn 0.0060 -1.0000 0.0014
vn 0.0022 -0.0363 0.9993
vn 1.0000 -0.0000 -0.0000
vn -0.0000 -0.0000 -1.0000
vn 0.0038 -0.1074 0.9942
vn -0.0060 -0.0368 0.9993
vn 0.0012 -0.1194 0.9928
vn -0.0051 -0.1436 0.9896
vn -0.0000 1.0000 0.0011
vn 0.0058 0.0030 -1.0000
vn 0.8366 0.5453 -0.0524
vt 0.459290 0.603801
vt 1.000000 0.603801
vt 1.000000 1.000000
vt 0.459290 1.000000
vt 0.459290 0.475824
vt 1.000000 0.475824
vt 0.245929 0.475824
vt 0.362572 0.475824
vt 0.362572 0.603801
vt 0.362572 1.000000
vt 0.000000 0.603801
vt 0.172496 0.603801
vt 0.172496 1.000000
vt 0.000000 1.000000
vt 0.000000 0.475824
vt 0.172496 0.475824
vt 0.245929 0.603801
vt 0.245929 1.000000
vt 0.245929 0.072531
vt 0.362572 0.072531
vt 0.000000 0.072531
vt 0.172496 0.072531
vt 0.459290 0.072531
vt 1.000000 0.072531
vt 0.459290 0.000000
vt 1.000000 0.000000
vt 0.000000 0.000000
vt 0.172496 0.000000
vt 0.362572 0.000000
vt 0.245929 0.000000
s 0
f 9/1/1 6/2/1 4/3/1 8/4/1
f 21/5/1 20/6/1 6/2/1 9/1/1
f 23/7/2 24/8/2 32/8/2 31/7/2
f 18/9/1 9/1/1 8/4/1 17/10/1
f 5/11/1 11/12/1 10/13/1 3/14/1
f 19/15/1 22/16/1 11/12/1 5/11/1
f 11/12/1 15/17/1 14/18/1 10/13/1
f 15/17/3 11/12/3 28/12/3 27/17/3
f 15/17/1 18/9/1 17/10/1 14/18/1
f 9/1/4 18/9/4 30/9/4 26/1/4
f 37/19/1 38/20/1 24/8/1 23/7/1
f 33/21/1 36/22/1 22/16/1 19/15/1
f 38/20/5 35/23/5 21/5/5 24/8/5
f 35/23/1 34/24/1 20/6/1 21/5/1
f 32/8/1 25/5/1 26/1/1 30/9/1
f 29/16/1 31/7/1 27/17/1 28/12/1
f 31/7/1 32/8/1 30/9/1 27/17/1
f 11/12/6 22/16/6 29/16/6 28/12/6
f 24/8/7 21/5/7 25/5/7 32/8/7
f 22/16/8 23/7/8 31/7/8 29/16/8
f 21/5/9 9/1/9 26/1/9 25/5/9
f 18/9/10 15/17/10 27/17/10 30/9/10
f 7/25/1 2/26/1 34/24/1 35/23/1
f 1/27/1 12/28/1 36/22/1 33/21/1
f 47/1/11 46/4/11 42/3/11 44/2/11
f 59/5/12 47/1/12 44/2/12 58/6/12
f 56/9/13 55/10/13 46/4/13 47/1/13
f 43/11/14 41/14/14 48/13/14 49/12/14
f 57/15/15 43/11/15 49/12/15 60/16/15
f 49/12/16 48/13/16 52/18/16 53/17/16
f 53/17/17 52/18/17 55/10/17 56/9/17
f 61/21/18 57/15/18 60/16/18 64/22/18
f 63/23/19 59/5/19 58/6/19 62/24/19
f 45/25/20 63/23/20 62/24/20 40/26/20
f 39/27/21 61/21/21 64/22/21 50/28/21
f 1/27/9 33/21/9 61/21/9 39/27/9
f 2/26/22 7/25/22 45/25/22 40/26/22
f 4/3/23 6/2/23 44/2/23 42/3/23
f 3/14/24 10/13/24 48/13/24 41/14/24
f 5/11/9 3/14/9 41/14/9 43/11/9
f 6/2/23 20/6/23 58/6/23 44/2/23
f 7/25/25 16/29/25 54/29/25 45/25/25
f 8/4/24 4/3/24 42/3/24 46/4/24
f 10/13/24 14/18/24 52/18/24 48/13/24
f 12/28/26 1/27/26 39/27/26 50/28/26
f 13/30/27 12/28/27 50/28/27 51/30/27
f 14/18/24 17/10/24 55/10/24 52/18/24
f 16/29/28 13/30/28 51/30/28 54/29/28
f 17/10/24 8/4/24 46/4/24 55/10/24
f 19/15/9 5/11/9 43/11/9 57/15/9
f 20/6/23 34/24/23 62/24/23 58/6/23
f 33/21/9 19/15/9 57/15/9 61/21/9
f 34/24/23 2/26/23 40/26/23 62/24/23
f 13/27/29 16/27/29 7/27/29 35/27/29 36/27/29 12/27/29
f 35/27/30 38/27/30 37/27/30 36/27/30
f 67/27/31 68/27/31 66/7/31 65/16/31
