# Blender 4.0.2
# www.blender.org
mtllib Button.mtl
g Button_Plane.019
v 46.058933 -0.521138 213.375259
v 46.317047 -0.784379 213.586441
v 46.431183 0.779921 213.574951
v 46.137371 0.553873 213.367355
v 46.216129 0.784198 212.021271
v 45.989582 0.556812 212.299652
v 46.101994 -0.780103 212.032761
v 45.911148 -0.518199 212.307541
vn -0.9879 0.0731 0.1369
vn -0.6016 0.0498 0.7973
vn -0.6471 0.7569 0.0916
vn -0.7955 0.0536 -0.6036
vn -0.7500 -0.6535 0.1020
vt 0.702609 0.069859
vt 0.930141 0.069859
vt 0.930141 0.297391
vt 0.702609 0.297391
vt 0.650829 0.349171
vt 0.650829 0.018079
vt 0.981921 0.018079
vt 0.981921 0.349171
s 0
usemtl Material.001
f 4/1/1 6/2/1 8/3/1 1/4/1
f 2/5/2 3/6/2 4/1/2 1/4/2
f 3/6/3 5/7/3 6/2/3 4/1/3
f 5/7/4 7/8/4 8/3/4 6/2/4
f 7/8/5 2/5/5 1/4/5 8/3/5
g ButtonFrame.001_Plane.018
v 46.452595 0.887308 213.681198
v 46.207958 0.892173 211.913788
v 46.322758 -0.892173 213.694275
v 46.078121 -0.887308 211.926865
v 46.315815 -0.784289 213.586624
v 46.429955 0.780012 213.575119
v 46.214901 0.784289 212.021439
v 46.100761 -0.780012 212.032944
v 46.317047 -0.784379 213.586441
v 46.431183 0.779921 213.574951
v 46.216129 0.784198 212.021271
v 46.101994 -0.780103 212.032761
v 46.795349 0.861950 213.633682
v 46.550713 0.866815 211.866287
v 46.665512 -0.917530 213.646759
v 46.420876 -0.912666 211.879349
v 46.397266 -0.817086 213.602417
v 46.515316 0.800868 213.590530
v 46.292889 0.805291 211.983551
v 46.174835 -0.812663 211.995438
v 46.384129 -0.832276 213.620575
v 46.504543 0.818067 213.608459
v 46.277660 0.822579 211.969315
v 46.157246 -0.827764 211.981445
vn -0.9879 0.0731 0.1369
vn 0.0728 0.9973 -0.0073
vn -0.0728 -0.9973 0.0073
vn 0.1371 -0.0027 0.9906
vn -0.1371 0.0027 -0.9906
vn 0.1563 -0.0187 -0.9875
vn 0.2178 -0.9754 -0.0328
vn 0.4186 -0.0239 0.9078
vn 0.3571 0.9329 -0.0469
vn -0.6919 0.7153 0.0977
vn -0.7883 -0.6058 0.1074
vn -0.6493 0.0529 0.7587
vn -0.8309 0.0566 -0.5535
vt 0.040851 0.040851
vt 0.040851 0.371944
vt 0.018079 0.394716
vt 0.018079 0.018079
vt 0.371944 0.040851
vt 0.394716 0.018079
vt 0.371944 0.371944
vt 0.394716 0.394716
vt 0.816334 0.761966
vt 0.816334 0.430873
vt 0.816597 0.430873
vt 0.816597 0.761966
vt 0.852754 0.761966
vt 0.852754 0.430873
vt 0.853017 0.430873
vt 0.853017 0.761966
vt 0.889174 0.761966
vt 0.889174 0.430873
vt 0.889437 0.430873
vt 0.889437 0.761966
vt 0.925594 0.761966
vt 0.925594 0.430873
vt 0.925857 0.430873
vt 0.925857 0.761966
vt 0.377622 0.447967
vt 0.394716 0.430873
vt 0.394716 0.807510
vt 0.377622 0.790416
vt 0.035173 0.447967
vt 0.018079 0.430873
vt 0.035173 0.790416
vt 0.018079 0.807510
vt 0.776749 0.776749
vt 0.780177 0.780177
vt 0.430873 0.780177
vt 0.434300 0.776749
vt 0.434300 0.434300
vt 0.430873 0.430873
vt 0.780177 0.430873
vt 0.776749 0.434300
vt 0.430873 0.394716
vt 0.430873 0.018079
vt 0.449704 0.018079
vt 0.449705 0.394716
vt 0.485862 0.394716
vt 0.485862 0.018079
vt 0.504694 0.018079
vt 0.504694 0.394716
vt 0.540851 0.394716
vt 0.540851 0.018079
vt 0.559682 0.018079
vt 0.559683 0.394716
vt 0.595840 0.394716
vt 0.595840 0.018079
vt 0.614671 0.018079
vt 0.614671 0.394716
s 0
usemtl Material.001
f 14/9/6 13/10/6 11/11/6 9/12/6
f 15/13/6 14/9/6 9/12/6 10/14/6
f 16/15/6 15/13/6 10/14/6 12/16/6
f 13/10/6 16/15/6 12/16/6 11/11/6
f 16/17/7 13/18/7 17/19/7 20/20/7
f 14/21/8 15/22/8 19/23/8 18/24/8
f 15/25/9 16/26/9 20/27/9 19/28/9
f 13/29/10 14/30/10 18/31/10 17/32/10
f 26/33/11 21/34/11 23/35/11 25/36/11
f 27/37/12 22/38/12 21/34/12 26/33/12
f 28/39/13 24/40/13 22/38/13 27/37/13
f 25/36/14 23/35/14 24/40/14 28/39/14
f 28/41/15 32/42/15 29/43/15 25/44/15
f 26/45/16 30/46/16 31/47/16 27/48/16
f 27/48/17 31/47/17 32/42/17 28/41/17
f 25/44/18 29/43/18 30/46/18 26/45/18
f 9/49/9 11/50/9 23/51/9 21/52/9
f 10/53/7 9/54/7 21/55/7 22/56/7
f 12/57/10 10/58/10 22/59/10 24/60/10
f 11/61/8 12/62/8 24/63/8 23/64/8
