# Blender 4.0.2
# www.blender.org
g Level2SecondPlat_Plane.027
v -45.956276 6.967566 -11.563744
v 17.972250 6.967566 -22.079487
v -50.633728 6.967566 -93.245697
v 16.038683 6.967566 -101.256485
v -58.732895 6.967566 -52.948250
v -4.630499 6.967566 9.528641
v 34.124504 6.967566 -63.229038
v -20.067896 6.967566 -99.241409
v -55.239388 6.967566 -72.869370
v -59.634865 6.967566 -27.534296
v -26.560448 6.967566 1.811596
v 9.946703 6.967566 5.693039
v 22.873159 6.967566 -45.746471
v 25.081591 6.967566 -82.242767
v -2.567419 6.967566 -106.171310
v -37.877411 6.967566 -101.529861
v -41.421597 2.771330 -16.507473
v 16.295794 2.771330 -26.001528
v -45.644600 2.771330 -90.253403
v 14.550079 2.771330 -97.485878
v -52.956871 2.771330 -53.871155
v -4.110931 2.771330 2.535633
v 30.878725 2.771330 -63.153084
v -18.048466 2.771330 -95.666573
v -49.802780 2.771330 -71.856781
v -53.771202 2.771330 -30.926357
v -23.910219 2.771330 -4.431644
v 9.049986 2.771330 -0.927307
v 20.720537 2.771330 -47.369080
v 22.714403 2.771330 -80.319481
v -2.248293 2.771330 -101.923187
v -34.127651 2.771330 -97.732697
v -36.793213 0.347109 -22.853352
v 11.309713 0.347109 -30.765903
v -40.312752 0.347109 -84.314812
v 9.854797 0.347109 -90.342514
v -46.406960 0.347109 -53.993057
v -5.697693 0.347109 -6.982414
v 23.463453 0.347109 -61.728817
v -17.313538 0.347109 -88.826263
v -13.422273 0.347109 -56.904503
v -43.778271 0.347109 -68.982666
v -47.085640 0.347109 -34.870365
v -22.198849 0.347109 -12.789093
v 5.270901 0.347109 -9.868507
v 14.997391 0.347109 -48.574089
v 16.659124 0.347109 -76.035667
v -4.145330 0.347109 -94.040665
v -30.714279 0.347109 -90.548218
v -13.837986 0.347109 -29.617666
v 2.485879 0.347109 -59.155613
v -15.465561 0.347109 -77.351372
v -30.910219 0.347109 -54.581482
v -30.812248 0.347109 -72.564850
v 0.596781 0.347109 -76.693520
v 0.283928 0.347109 -32.552261
v -26.940960 0.347109 -30.136240
v -55.239388 9.973726 -72.869370
v -58.732895 9.973726 -52.948250
v -59.634865 9.973726 -27.534296
v -45.956276 9.973726 -11.563744
v -26.560448 9.973726 1.811596
v -4.630499 9.973726 9.528641
v 9.946703 9.973726 5.693039
v 17.972250 9.973726 -22.079487
v 22.873159 9.973726 -45.746471
v 34.124504 9.973726 -63.229038
v 25.081591 9.973726 -82.242767
v 16.038683 9.973726 -101.256485
v -2.567419 9.973726 -106.171310
v -20.067896 9.973726 -99.241409
v -37.877411 9.973726 -101.529861
v -50.633728 9.973726 -93.245697
v -15.448907 9.973726 -20.553493
v -14.896425 9.973726 -56.817551
v 6.245422 9.973726 -59.809261
v -17.611944 9.973726 -83.991333
v -38.137810 9.973726 -53.730267
v -38.007610 9.973726 -77.630066
v 3.734821 9.973726 -83.117050
v 3.319042 9.973726 -24.453556
v -32.862690 9.973726 -21.242676
vn 0.9031 -0.0000 -0.4295
vn -0.3319 -0.0000 0.9433
vn 0.9792 -0.0000 0.2028
vn -0.7595 -0.0000 0.6505
vn 0.2545 -0.0000 0.9671
vn -0.9850 -0.0000 -0.1727
vn -0.5446 -0.0000 -0.8387
vn -0.5677 -0.0000 0.8232
vn -0.3682 -0.0000 -0.9298
vn -0.9994 -0.0000 -0.0355
vn -0.9754 -0.0000 -0.2205
vn 0.1274 -0.0000 -0.9918
vn 0.8409 -0.0000 0.5412
vn 0.2554 -0.0000 -0.9668
vn 0.9607 -0.0000 0.2776
vn 0.0732 -0.9581 -0.2770
vn 0.3542 -0.9296 0.1023
vn 0.2843 -0.9491 -0.1352
vn -0.0915 -0.9612 0.2601
vn 0.3750 -0.9238 0.0776
vn -0.2296 -0.9532 0.1967
vn 0.0623 -0.9696 0.2366
vn -0.3475 -0.9357 -0.0609
vn -0.1601 -0.9558 -0.2465
vn -0.1675 -0.9555 0.2429
vn -0.1264 -0.9392 -0.3193
vn -0.3473 -0.9377 -0.0123
vn -0.3404 -0.9371 -0.0769
vn 0.0434 -0.9402 -0.3379
vn 0.3410 -0.9141 0.2195
vn 0.8468 -0.5022 0.1754
vn -0.1749 -0.8499 0.4970
vn 0.7376 -0.5769 -0.3508
vn 0.8080 -0.5410 0.2335
vn 0.1843 -0.6923 -0.6977
vn 0.7081 -0.5394 0.4557
vn 0.1003 -0.6168 -0.7807
vn -0.5899 -0.7964 -0.1333
vn -0.5898 -0.8073 -0.0209
vn -0.2644 -0.6960 -0.6676
vn -0.3031 -0.8455 0.4396
vn -0.3410 -0.7798 -0.5250
vn -0.5954 -0.7966 -0.1044
vn 0.1361 -0.8450 0.5172
vn -0.4049 -0.8461 0.3468
vn -0.0000 -1.0000 -0.0000
vn -0.0000 1.0000 -0.0000
vn 0.0622 -0.9696 0.2366
vt 1.000000 0.750000
vt 1.000000 0.500000
vt 0.500000 0.000000
vt 0.250000 0.000000
vt 1.000000 0.250000
vt 1.000000 0.000000
vt 0.000000 0.000000
vt 0.000000 0.250000
vt 0.750000 0.000000
vt 0.000000 0.500000
vt 0.000000 0.750000
vt 0.000000 1.000000
vt 0.250000 1.000000
vt 0.500000 1.000000
vt 0.750000 1.000000
vt 1.000000 1.000000
vt 0.250000 0.250000
vt 0.500000 0.500000
vt 0.500000 0.250000
vt 0.750000 0.500000
vt 0.750000 0.250000
vt 0.750000 0.750000
vt 0.500000 0.750000
vt 0.250000 0.750000
vt 0.250000 0.500000
s 0
f 68/1/1 7/2/1 14/1/1
f 63/3/2 11/4/2 6/3/2
f 66/5/3 2/6/3 13/5/3
f 61/7/4 10/8/4 1/7/4
f 64/9/5 6/3/5 12/9/5
f 59/10/6 9/11/6 5/10/6
f 73/12/7 16/13/7 3/12/7
f 62/4/8 1/7/8 11/4/8
f 71/14/9 15/15/9 8/14/9
f 60/8/10 5/10/10 10/8/10
f 69/16/1 14/1/1 4/16/1
f 58/11/11 3/12/11 9/11/11
f 72/13/12 8/14/12 16/13/12
f 67/2/13 13/5/13 7/2/13
f 70/15/14 4/16/14 15/15/14
f 65/6/15 12/9/15 2/6/15
f 36/16/16 31/15/16 20/16/16
f 45/9/17 18/6/17 28/9/17
f 39/2/18 30/1/18 23/2/18
f 27/4/19 38/3/19 22/3/19
f 34/6/20 29/5/20 18/6/20
f 43/8/21 17/7/21 26/8/21
f 22/3/22 45/9/22 28/9/22
f 25/11/23 37/10/23 21/10/23
f 32/13/24 35/12/24 19/12/24
f 17/7/25 44/4/25 27/4/25
f 48/15/26 24/14/26 31/15/26
f 21/10/27 43/8/27 26/8/27
f 30/1/18 36/16/18 20/16/18
f 35/12/28 25/11/28 19/12/28
f 24/14/29 49/13/29 32/13/29
f 29/5/30 39/2/30 23/2/30
f 18/6/31 13/5/31 2/6/31
f 11/4/32 22/3/32 6/3/32
f 23/2/33 14/1/33 7/2/33
f 28/9/34 2/6/34 12/9/34
f 4/16/35 31/15/35 15/15/35
f 13/5/36 23/2/36 7/2/36
f 8/14/37 32/13/37 16/13/37
f 19/12/38 9/11/38 3/12/38
f 14/1/33 20/16/33 4/16/33
f 5/10/39 26/8/39 10/8/39
f 31/15/40 8/14/40 15/15/40
f 17/7/41 11/4/41 1/7/41
f 16/13/42 19/12/42 3/12/42
f 9/11/43 21/10/43 5/10/43
f 22/3/44 12/9/44 6/3/44
f 26/8/45 1/7/45 10/8/45
f 57/17/46 41/18/46 50/19/46
f 51/20/46 46/5/46 56/21/46
f 55/22/46 36/16/46 47/1/46
f 49/13/46 52/23/46 54/24/46
f 35/12/46 54/24/46 42/11/46
f 42/11/46 53/25/46 37/10/46
f 54/24/46 41/18/46 53/25/46
f 52/23/46 48/15/46 55/22/46
f 41/18/46 55/22/46 51/20/46
f 51/20/46 47/1/46 39/2/46
f 41/18/46 56/21/46 50/19/46
f 38/3/46 56/21/46 45/9/46
f 56/21/46 34/6/46 45/9/46
f 43/8/46 53/25/46 57/17/46
f 33/7/46 57/17/46 44/4/46
f 44/4/46 50/19/46 38/3/46
f 82/17/47 75/18/47 78/25/47
f 66/5/47 76/20/47 81/21/47
f 80/22/47 69/16/47 70/15/47
f 77/23/47 72/13/47 79/24/47
f 79/24/47 73/12/47 58/11/47
f 78/25/47 58/11/47 59/10/47
f 75/18/47 79/24/47 78/25/47
f 77/23/47 70/15/47 71/14/47
f 75/18/47 80/22/47 77/23/47
f 76/20/47 68/1/47 80/22/47
f 81/21/47 75/18/47 74/19/47
f 63/3/47 81/21/47 74/19/47
f 65/6/47 81/21/47 64/9/47
f 60/8/47 78/25/47 59/10/47
f 61/7/47 82/17/47 60/8/47
f 62/4/47 74/19/47 82/17/47
f 68/1/1 67/2/1 7/2/1
f 63/3/2 62/4/2 11/4/2
f 66/5/3 65/6/3 2/6/3
f 61/7/4 60/8/4 10/8/4
f 64/9/5 63/3/5 6/3/5
f 59/10/6 58/11/6 9/11/6
f 73/12/7 72/13/7 16/13/7
f 62/4/8 61/7/8 1/7/8
f 71/14/9 70/15/9 15/15/9
f 60/8/10 59/10/10 5/10/10
f 69/16/1 68/1/1 14/1/1
f 58/11/11 73/12/11 3/12/11
f 72/13/12 71/14/12 8/14/12
f 67/2/13 66/5/13 13/5/13
f 70/15/14 69/16/14 4/16/14
f 65/6/15 64/9/15 12/9/15
f 36/16/16 48/15/16 31/15/16
f 45/9/17 34/6/17 18/6/17
f 39/2/18 47/1/18 30/1/18
f 27/4/19 44/4/19 38/3/19
f 34/6/20 46/5/20 29/5/20
f 43/8/21 33/7/21 17/7/21
f 22/3/48 38/3/48 45/9/48
f 25/11/23 42/11/23 37/10/23
f 32/13/24 49/13/24 35/12/24
f 17/7/25 33/7/25 44/4/25
f 48/15/26 40/14/26 24/14/26
f 21/10/27 37/10/27 43/8/27
f 30/1/18 47/1/18 36/16/18
f 35/12/28 42/11/28 25/11/28
f 24/14/29 40/14/29 49/13/29
f 29/5/30 46/5/30 39/2/30
f 18/6/31 29/5/31 13/5/31
f 11/4/32 27/4/32 22/3/32
f 23/2/33 30/1/33 14/1/33
f 28/9/34 18/6/34 2/6/34
f 4/16/35 20/16/35 31/15/35
f 13/5/36 29/5/36 23/2/36
f 8/14/37 24/14/37 32/13/37
f 19/12/38 25/11/38 9/11/38
f 14/1/33 30/1/33 20/16/33
f 5/10/39 21/10/39 26/8/39
f 31/15/40 24/14/40 8/14/40
f 17/7/41 27/4/41 11/4/41
f 16/13/42 32/13/42 19/12/42
f 9/11/43 25/11/43 21/10/43
f 22/3/44 28/9/44 12/9/44
f 26/8/45 17/7/45 1/7/45
f 57/17/46 53/25/46 41/18/46
f 51/20/46 39/2/46 46/5/46
f 55/22/46 48/15/46 36/16/46
f 49/13/46 40/14/46 52/23/46
f 35/12/46 49/13/46 54/24/46
f 42/11/46 54/24/46 53/25/46
f 54/24/46 52/23/46 41/18/46
f 52/23/46 40/14/46 48/15/46
f 41/18/46 52/23/46 55/22/46
f 51/20/46 55/22/46 47/1/46
f 41/18/46 51/20/46 56/21/46
f 38/3/46 50/19/46 56/21/46
f 56/21/46 46/5/46 34/6/46
f 43/8/46 37/10/46 53/25/46
f 33/7/46 43/8/46 57/17/46
f 44/4/46 57/17/46 50/19/46
f 82/17/47 74/19/47 75/18/47
f 66/5/47 67/2/47 76/20/47
f 80/22/47 68/1/47 69/16/47
f 77/23/47 71/14/47 72/13/47
f 79/24/47 72/13/47 73/12/47
f 78/25/47 79/24/47 58/11/47
f 75/18/47 77/23/47 79/24/47
f 77/23/47 80/22/47 70/15/47
f 75/18/47 76/20/47 80/22/47
f 76/20/47 67/2/47 68/1/47
f 81/21/47 76/20/47 75/18/47
f 63/3/47 64/9/47 81/21/47
f 65/6/47 66/5/47 81/21/47
f 60/8/47 82/17/47 78/25/47
f 61/7/47 62/4/47 82/17/47
f 62/4/47 63/3/47 74/19/47
