# Blender 4.0.2
# www.blender.org
g Level2FirstBridge_Plane.026
v 31.445095 10.354053 -66.561981
v 16.550247 10.354053 -97.796722
v 106.812561 10.354053 -140.839905
v 23.997673 10.268953 -82.179352
v 76.576256 10.354053 -88.083557
v 114.259995 10.268953 -125.222534
v 61.681408 10.354053 -119.318314
v 69.128830 10.268953 -103.700943
v 108.629570 10.354053 -137.029602
v 18.367264 10.354053 -93.986435
v 63.498413 10.354053 -115.508026
v 29.564690 10.354053 -70.505226
v 119.826996 10.354053 -113.548401
v 74.695847 10.354053 -92.026810
v 23.997673 7.861197 -82.179352
v 114.259995 7.861197 -125.222534
v 69.128830 7.861197 -103.700943
v 108.629570 7.861197 -137.029602
v 18.367264 7.861197 -93.986435
v 63.498413 7.861197 -115.508026
v 29.564690 7.861197 -70.505226
v 119.826996 7.861197 -113.548401
v 74.695847 7.861197 -92.026810
v 29.564690 12.886951 -70.505226
v 30.617973 14.419653 -70.298714
v 31.445095 12.886951 -66.561981
v 33.160839 15.564104 -69.800133
v 31.947628 14.419653 -67.510414
v 75.636047 15.564104 -90.055191
v 76.576256 12.886951 -88.083557
v 76.300873 14.419653 -88.661034
v 121.707413 12.886951 -109.605148
v 118.111267 15.564104 -110.310242
v 120.654129 14.419653 -109.811668
v 119.826996 12.886951 -113.548401
v 119.324471 14.419653 -112.599968
v 74.695847 12.886951 -92.026810
v 74.971222 14.419653 -91.449341
v 105.154678 15.564104 -137.710922
v 108.629570 12.960039 -137.029602
v 107.611801 14.441059 -137.229156
v 106.812561 12.960039 -140.839905
v 106.326981 14.441059 -139.923447
v 61.681408 12.960039 -119.318314
v 61.947502 14.441059 -118.760315
v 16.550247 12.960039 -97.796722
v 17.568016 14.441059 -97.597176
v 63.498413 12.960039 -115.508026
v 62.589912 15.564104 -117.413170
v 63.232319 14.441059 -116.066032
v 20.025146 15.564104 -97.115402
v 18.367264 12.960039 -93.986435
v 18.852848 14.441059 -94.902893
v 30.768311 7.861197 -67.981209
v 31.246872 8.591337 -66.977661
v 121.707413 10.354053 -109.605148
v 121.030624 7.861197 -111.024384
v 121.509186 8.591337 -110.020828
v 17.227036 7.861197 -96.377495
v 16.748474 8.591337 -97.381042
v 107.489349 7.861197 -139.420670
v 107.010788 8.591337 -140.424225
v 75.899467 7.861197 -89.502792
v 76.378029 8.591337 -88.499245
v 62.358192 7.861197 -117.899086
v 61.879635 8.591337 -118.902634
vn 0.4304 -0.0000 0.9026
vn -0.9026 -0.0000 0.4304
vn -0.0028 1.0000 -0.0059
vn 0.0028 1.0000 0.0059
vn -0.0000 -1.0000 -0.0000
vn 0.9026 -0.0000 -0.4304
vn -0.4304 -0.0000 -0.9026
vn -0.7868 0.4901 0.3752
vn -0.4350 0.8762 0.2074
vn 0.3972 0.3852 0.8330
vn 0.2563 0.8035 0.5374
vn 0.7868 0.4901 -0.3752
vn 0.4350 0.8762 -0.2074
vn -0.3972 0.3852 -0.8330
vn -0.2563 0.8035 -0.5374
vn 0.4402 0.8730 -0.2099
vn -0.2588 0.7991 -0.5427
vn -0.4402 0.8730 0.2099
vn 0.2588 0.7990 0.5427
vn 0.2588 0.7991 0.5427
vn 0.2363 -0.8359 0.4955
vn 0.4165 -0.2528 0.8733
vn -0.2363 -0.8359 -0.4955
vn -0.4165 -0.2528 -0.8733
vt 0.000000 0.000000
vt 0.500000 0.000000
vt 0.000000 1.000000
vt 0.000000 0.750000
vt 0.000000 0.250000
vt 0.500000 0.250000
vt 0.500000 0.500000
vt 0.000000 0.500000
vt 1.000000 0.250000
vt 1.000000 0.500000
vt 0.500000 0.750000
vt 1.000000 0.750000
vt 0.000000 0.990909
vt 0.000000 0.906882
vt 1.000000 0.000000
vt 1.000000 0.008785
vt 1.000000 0.089978
vt 0.000000 0.089979
vt 0.500000 0.089978
vt 0.500000 0.089978
vt 1.000000 0.089978
vt 0.500000 0.906882
vt 1.000000 0.906882
vt 0.000000 0.906882
vt 1.000000 1.000000
vt 1.000000 0.906882
vt 0.996842 0.990909
vt 0.500000 1.000000
vt 0.007600 0.032284
vt 0.001019 0.245672
vt 0.029425 0.125000
vt 0.998981 0.004328
vt 0.503290 0.000000
vt 0.970575 0.125000
vt 0.500000 0.125000
vt 0.029425 0.125000
vt 0.992400 0.217716
vt 0.496710 0.250000
vt 0.500000 0.125000
vt 0.970575 0.125000
vt 0.992657 0.967716
vt 0.999016 0.754328
vt 0.971568 0.875000
vt 0.000984 0.995672
vt 0.496821 1.000000
vt 0.028433 0.875000
vt 0.500000 0.875000
vt 0.971568 0.875000
vt 0.007343 0.782284
vt 0.028433 0.875000
vt 0.503179 0.750000
vt 0.502369 0.000000
vt 0.497631 1.000000
vt 0.003158 0.008785
vt 0.000000 0.089978
s 0
f 1/1/1 5/2/1 30/2/1 26/1/1
f 2/3/2 10/4/2 52/4/2 46/3/2
f 12/5/3 14/6/3 8/7/3 4/8/3
f 14/6/3 13/9/3 6/10/3 8/7/3
f 4/8/4 8/7/4 11/11/4 10/4/4
f 8/7/4 6/10/4 9/12/4 11/11/4
f 10/4/1 11/11/1 48/11/1 52/4/1
f 10/4/2 2/3/2 60/13/2 59/14/2 19/4/2
f 21/5/5 15/8/5 17/7/5 23/6/5
f 23/6/5 17/7/5 16/10/5 22/9/5
f 15/8/5 19/4/5 20/11/5 17/7/5
f 17/7/5 20/11/5 18/12/5 16/10/5
f 13/9/6 56/15/6 58/16/6 57/17/6 22/9/6
f 54/18/5 21/5/5 23/6/5 63/19/5
f 63/20/5 23/6/5 22/9/5 57/21/5
f 20/11/5 65/22/5 61/23/5 18/12/5
f 19/4/5 59/24/5 65/22/5 20/11/5
f 4/8/2 10/4/2 19/4/2 15/8/2
f 6/10/6 13/9/6 22/9/6 16/10/6
f 9/12/6 6/10/6 16/10/6 18/12/6
f 3/25/6 9/12/6 18/12/6 61/26/6 62/27/6
f 12/5/2 4/8/2 15/8/2 21/5/2
f 11/11/1 9/12/1 40/12/1 48/11/1
f 7/28/7 2/3/7 46/3/7 44/28/7
f 56/15/6 13/9/6 35/9/6 32/15/6
f 14/6/7 12/5/7 24/5/7 37/6/7
f 12/5/2 1/1/2 26/1/2 24/5/2
f 13/9/7 14/6/7 37/6/7 35/9/7
f 5/2/1 56/15/1 32/15/1 30/2/1
f 3/25/7 7/28/7 44/28/7 42/25/7
f 24/5/8 26/1/8 28/29/8 25/30/8
f 25/30/9 28/29/9 27/31/9
f 30/2/10 32/15/10 34/32/10 31/33/10
f 31/33/11 34/32/11 33/34/11 29/35/11
f 26/1/10 30/2/10 31/33/10 28/29/10
f 28/29/11 31/33/11 29/35/11 27/36/11
f 32/15/12 35/9/12 36/37/12 34/32/12
f 34/32/13 36/37/13 33/34/13
f 35/9/14 37/6/14 38/38/14 36/37/14
f 36/37/15 38/38/15 29/39/15 33/40/15
f 37/6/14 24/5/14 25/30/14 38/38/14
f 38/38/15 25/30/15 27/31/15 29/39/15
f 40/12/12 42/25/12 43/41/12 41/42/12
f 41/42/16 43/41/16 39/43/16
f 44/28/14 46/3/14 47/44/14 45/45/14
f 45/45/17 47/44/17 51/46/17 49/47/17
f 42/25/14 44/28/14 45/45/14 43/41/14
f 43/41/17 45/45/17 49/47/17 39/48/17
f 46/3/8 52/4/8 53/49/8 47/44/8
f 47/44/18 53/49/18 51/46/18
f 49/47/19 51/50/19 53/49/19 50/51/19
f 50/51/10 53/49/10 52/4/10 48/11/10
f 39/43/20 49/47/20 50/51/20 41/42/20
f 41/42/10 50/51/10 48/11/10 40/12/10
f 9/12/6 3/25/6 42/25/6 40/12/6
f 63/20/21 57/21/21 58/16/21 64/52/21
f 64/52/22 58/16/22 56/15/22 5/2/22
f 65/22/23 59/24/23 60/13/23 66/53/23
f 66/53/24 60/13/24 2/3/24 7/28/24
f 54/18/21 63/19/21 64/52/21 55/54/21
f 55/54/22 64/52/22 5/2/22 1/1/22
f 61/23/23 65/22/23 66/53/23 62/27/23
f 62/27/24 66/53/24 7/28/24 3/25/24
f 1/1/2 12/5/2 21/5/2 54/55/2 55/54/2
