# Blender 4.0.2
# www.blender.org
g Plane.001_Plane.030
v -4.850644 9.721424 312.092834
v -6.726003 11.167995 314.113129
v 19.688995 11.159067 265.760651
v 18.445541 9.721424 268.022034
v 5.690258 9.721424 269.416626
v 5.165905 11.158258 267.348877
v -5.155468 9.721424 275.273376
v -6.638656 11.159776 273.722748
v -10.459845 9.721424 285.783447
v -12.551639 11.162591 285.436493
v -8.416055 9.721424 294.024933
v -10.289227 11.165481 294.563141
v -4.779316 9.721424 302.399475
v -6.643813 11.167516 302.959106
v 14.712002 9.721424 312.236786
v 15.911231 11.168133 314.279785
v 28.328217 11.161673 286.584839
v 26.307053 9.721424 286.973755
v 27.737972 11.164598 294.948883
v 25.788963 9.721424 294.303406
v 22.500580 11.167006 301.372589
v 20.907888 9.721424 300.289093
v 18.424740 11.168242 308.228790
v 16.815966 9.721424 307.171692
v 19.697435 13.914379 265.439545
v 20.071060 13.132156 264.895264
v 5.076879 13.132597 266.534485
v 5.291675 13.914379 267.014587
v -7.110223 13.131771 273.115936
v -6.677512 13.914379 273.478027
v -13.213384 13.130239 285.209930
v -12.602672 13.914379 285.218109
v -10.876440 13.128668 294.631561
v -10.327279 13.914379 294.393494
v -7.112629 13.127560 303.297913
v -6.474548 13.914379 303.265411
v -7.197286 13.127299 314.811005
v -6.555542 13.914379 314.272400
v 16.168892 13.127225 314.982941
v 15.723443 13.914379 314.436371
v 28.415428 13.914379 286.455963
v 28.989105 13.130739 286.395264
v 27.829643 13.914379 294.743317
v 28.378254 13.129148 295.029816
v 22.481514 13.914379 301.301758
v 22.970837 13.127838 301.660400
v 18.160080 13.914379 308.570374
v 18.763304 13.127165 308.737061
vn 0.8940 -0.2509 0.3713
vn 0.8727 -0.3277 -0.3620
vn -0.0000 1.0000 -0.0000
vn -0.9728 -0.2314 -0.0072
vn -0.4435 -0.3588 -0.8213
vn -0.8421 -0.3321 -0.4250
vn 0.9478 -0.3117 0.0670
vn 0.7466 -0.2684 0.6088
vn -0.9300 -0.2862 0.2306
vn 0.8275 -0.2707 0.4920
vn -0.0000 -1.0000 -0.0000
vn -0.8814 -0.2770 0.3827
vn -0.0611 -0.8268 -0.5591
vn -0.2712 -0.8212 -0.5021
vn -0.5176 -0.8148 -0.2612
vn -0.5778 -0.8035 0.1434
vn -0.5492 -0.8009 0.2386
vn -0.6137 -0.7895 -0.0045
vn -0.0043 -0.8149 0.5796
vn 0.5367 -0.8139 -0.2226
vn 0.5854 -0.8097 0.0415
vn 0.4660 -0.7989 0.3802
vn 0.5166 -0.7992 0.3072
vn 0.5611 -0.7942 0.2331
vn -0.0069 -0.3370 0.9415
vn -0.0915 0.5391 -0.8373
vn -0.3947 0.5568 -0.7309
vn -0.7310 0.5740 -0.3689
vn -0.7756 0.6012 0.1924
vn -0.7299 0.6056 0.3170
vn -0.7769 0.6296 -0.0057
vn -0.0061 0.5680 0.8230
vn 0.7543 0.5772 -0.3129
vn 0.8081 0.5863 0.0572
vn 0.6137 0.6107 0.5005
vn 0.6819 0.6088 0.4055
vn 0.7250 0.6194 0.3012
vn -0.1004 -0.3833 -0.9182
vt 0.702564 0.000000
vt 0.752117 0.121816
vt 0.947728 0.557689
vt 0.771253 0.974426
vt 0.691905 0.015844
vt 0.737868 0.128835
vt 0.819827 0.269028
vt 0.921602 0.395728
vt 0.931680 0.554956
vt 0.761295 0.957311
vt 0.484877 0.925029
vt 0.255942 0.799218
vt 0.143818 0.572931
vt 0.188810 0.397053
vt 0.264049 0.227227
vt 0.264049 0.015844
vt 0.248206 0.223874
vt 0.248206 0.000000
vt 0.479962 0.940406
vt 0.243953 0.810708
vt 0.243953 0.810708
vt 0.479962 0.940406
vt 0.127012 0.574698
vt 0.937097 0.389719
vt 0.937097 0.389719
vt 0.832913 0.260020
vt 0.937097 0.389719
vt 0.173788 0.391845
vt 0.681591 0.031174
vt 0.279380 0.031174
vt 0.279380 0.230471
vt 0.203345 0.402093
vt 0.160080 0.571220
vt 0.267542 0.788099
vt 0.489634 0.910150
vt 0.751659 0.940751
vt 0.916151 0.552312
vt 0.906609 0.401543
vt 0.807164 0.277744
vt 0.724080 0.135626
vt 0.248206 0.223874
vt 0.248206 0.000000
vt 0.248206 0.000000
s 0
f 16/1/1 23/2/1 48/2/1 39/1/1
f 17/3/2 3/4/2 26/4/2 42/3/2
f 40/5/3 47/6/3 45/7/3 43/8/3 41/9/3 25/10/3 28/11/3 30/12/3 32/13/3 34/14/3 36/15/3 38/16/3
f 14/17/4 2/18/4 37/18/4 35/17/4
f 6/19/5 8/20/5 29/21/5 27/22/5
f 8/21/6 10/23/6 31/23/6 29/21/6
f 19/24/7 17/3/7 42/3/7 44/25/7
f 21/26/8 19/27/8 44/24/8 46/26/8
f 10/23/9 12/28/9 33/28/9 31/23/9
f 23/2/10 21/26/10 46/26/10 48/2/10
f 15/29/11 1/30/11 13/31/11 11/32/11 9/33/11 7/34/11 5/35/11 4/36/11 18/37/11 20/38/11 22/39/11 24/40/11
f 12/28/12 14/41/12 35/17/12 33/28/12
f 4/36/13 5/35/13 6/19/13 3/4/13
f 5/35/14 7/34/14 8/20/14 6/19/14
f 7/34/15 9/33/15 10/23/15 8/21/15
f 9/33/16 11/32/16 12/28/16 10/23/16
f 11/32/17 13/31/17 14/41/17 12/28/17
f 13/31/18 1/30/18 2/18/18 14/17/18
f 1/30/19 15/29/19 16/1/19 2/42/19
f 3/4/20 17/3/20 18/37/20 4/36/20
f 17/3/21 19/24/21 20/38/21 18/37/21
f 19/27/22 21/26/22 22/39/22 20/38/22
f 21/26/23 23/2/23 24/40/23 22/39/23
f 23/2/24 16/1/24 15/29/24 24/40/24
f 2/42/25 16/1/25 39/1/25 37/43/25
f 26/4/26 27/19/26 28/11/26 25/10/26
f 27/22/27 29/21/27 30/12/27 28/11/27
f 29/21/28 31/23/28 32/13/28 30/12/28
f 31/23/29 33/28/29 34/14/29 32/13/29
f 33/28/30 35/17/30 36/15/30 34/14/30
f 35/17/31 37/18/31 38/16/31 36/15/31
f 37/43/32 39/1/32 40/5/32 38/16/32
f 25/10/33 41/9/33 42/3/33 26/4/33
f 41/9/34 43/8/34 44/25/34 42/3/34
f 43/8/35 45/7/35 46/26/35 44/24/35
f 45/7/36 47/6/36 48/2/36 46/26/36
f 47/6/37 40/5/37 39/1/37 48/2/37
f 3/4/38 6/19/38 27/19/38 26/4/38
