# Blender 4.0.2
# www.blender.org
g Level2StartPlat_Plane.025
v 141.235779 10.200829 -205.807037
v 187.636597 10.384254 -205.807037
v 187.636597 10.135693 -97.072556
v 164.436172 10.135693 -92.593109
v 141.235764 10.135693 -97.072556
v 220.446930 10.135693 -173.959442
v 225.061768 10.135693 -151.439789
v 220.446930 10.135693 -128.920135
v 108.425430 10.135693 -128.920151
v 103.810585 10.135693 -151.439804
v 108.425430 10.135693 -173.959442
v 207.304947 10.135693 -193.050690
v 121.567413 10.135693 -193.050690
v 207.304947 10.135693 -109.828903
v 121.567413 10.135693 -109.828903
v 194.750626 19.251122 -122.714417
v 207.307281 19.251122 -153.444962
v 121.565079 19.251122 -153.444962
v 194.750626 19.251122 -184.175507
v 134.121735 19.251122 -184.175507
v 207.304947 14.251122 -109.828903
v 121.567413 14.251122 -193.050690
v 207.304947 14.251122 -193.050690
v 108.425430 14.251122 -173.959442
v 187.636597 14.251122 -205.807037
v 204.434280 19.251122 -112.950195
v 206.464142 17.786655 -110.743111
v 124.438072 19.251122 -189.929398
v 122.408203 17.786655 -192.136490
v 204.434280 19.251122 -189.929398
v 206.464142 17.786655 -192.136475
v 114.531967 19.251122 -175.599960
v 110.213989 17.786655 -174.439941
v 103.810585 14.251122 -151.439804
v 109.555313 19.251122 -151.439789
v 105.493187 17.786655 -151.439804
v 220.446930 14.251122 -128.920135
v 214.340393 19.251122 -127.279633
v 218.658356 17.786655 -128.439651
v 225.061768 14.251122 -151.439789
v 219.317047 19.251122 -151.439789
v 223.379181 17.786655 -151.439789
v 214.340393 19.251122 -175.599945
v 220.446930 14.251122 -173.959442
v 218.658356 17.786655 -174.439941
v 189.366165 19.251122 -103.138374
v 187.636597 14.251122 -97.072556
v 188.143173 17.786655 -98.849182
v 189.366165 19.251122 -199.741226
v 188.143173 17.786655 -204.030396
v 139.506195 19.251122 -199.741226
v 141.235779 14.251122 -205.807037
v 140.729187 17.786655 -204.030396
v 146.996857 0.371445 -193.713150
v 164.700607 0.371445 -197.131317
v 182.404358 0.371445 -193.713150
v 182.404358 0.371445 -111.775574
v 164.700607 0.371445 -108.357407
v 146.996857 0.371445 -111.775574
v 207.248505 0.371445 -169.632477
v 210.709320 0.371445 -152.744354
v 207.248505 0.371445 -135.856232
v 122.152710 0.371445 -135.856232
v 118.691902 0.371445 -152.744354
v 122.152710 0.371445 -169.632477
v 197.340225 0.371445 -184.026154
v 132.060989 0.371445 -184.026154
v 197.340225 0.371445 -121.462563
v 132.060989 0.371445 -121.462563
v 143.253342 5.387646 -203.003326
v 164.700607 5.387646 -98.344444
v 186.147873 5.387646 -102.485397
v 204.329987 5.387646 -114.277809
v 216.478882 5.387646 -131.926407
v 125.071228 5.387646 -191.210907
v 112.922333 5.387646 -173.562302
v 186.147873 5.387646 -203.003326
v 143.253342 5.387646 -102.485397
v 220.745010 5.387646 -152.744354
v 216.478882 5.387646 -173.562302
v 108.656204 5.387646 -152.744354
v 112.922333 5.387646 -131.926422
v 204.329987 5.387646 -191.210907
v 125.071228 5.387646 -114.277809
v 194.750626 10.195965 -122.714417
v 164.436172 10.195965 -109.985413
v 134.121735 10.195965 -122.714417
v 207.307281 10.195965 -153.444962
v 164.436172 10.195965 -151.439789
v 121.565079 10.195965 -153.444962
v 194.750626 10.195965 -184.175507
v 164.436172 10.195965 -180.863129
v 134.121735 10.195965 -184.175507
v 164.436188 10.196037 -206.894409
v 164.710983 -0.306488 -211.475616
v 143.263718 -1.578163 -208.825424
v 141.246140 3.235020 -208.784729
v 186.158234 -1.578163 -208.825424
v 187.646957 3.418446 -208.784729
v 164.710983 -6.594364 -202.953400
v 147.007233 -6.594364 -199.535248
v 182.414734 -6.594364 -199.535248
v 164.446548 3.230228 -209.803146
v 164.700623 -6.807224 -204.379486
v 156.019867 -8.482613 -204.426300
v 164.700607 -50.319130 -205.595245
v 173.381378 -48.643738 -205.548431
v 180.704941 -43.895729 -205.415771
v 185.563309 -36.840767 -205.218658
v 148.696289 -13.230625 -204.558960
v 143.837921 -20.285583 -204.756073
v 173.381378 -8.482613 -204.426300
v 156.019852 -48.643738 -205.548431
v 187.260254 -28.563171 -204.987366
v 185.563309 -20.285587 -204.756088
v 142.140976 -28.563171 -204.987366
v 143.837921 -36.840767 -205.218658
v 180.704941 -13.230625 -204.558960
v 148.696289 -43.895729 -205.415771
v 153.012192 -12.011082 -193.363708
v 150.004517 -5.416733 -189.792664
v 186.250031 -35.619827 -169.939835
v 191.795135 -17.221107 -141.955429
v 179.396698 -18.803780 -135.541656
v 176.389038 -38.785172 -166.799286
v 186.250031 -15.176426 -190.223160
v 191.795135 -6.999405 -183.378891
v 192.791702 -19.879734 -185.556686
v 200.020111 -9.351059 -173.848816
v 134.324615 -25.398117 -180.081497
v 126.508255 -12.110252 -162.667160
v 129.381119 -9.351059 -173.848816
v 136.609528 -19.879730 -185.556686
v 164.700607 -39.902092 -165.691101
v 164.700607 -19.362240 -133.278488
v 150.004517 -18.803780 -135.541656
v 153.012192 -38.785172 -166.799286
v 195.076614 -25.398117 -180.081497
v 202.892960 -12.110252 -162.667160
v 200.020111 -14.869453 -151.485504
v 192.791702 -30.916519 -174.606308
v 164.700623 -10.894157 -194.471893
v 164.700607 -4.858273 -192.055847
v 179.396698 -5.416737 -189.792664
v 176.389038 -12.011086 -193.363708
v 129.381104 -14.869453 -151.485504
v 136.609512 -30.916519 -174.606323
v 143.151184 -35.619827 -169.939835
v 137.606079 -17.221107 -141.955429
v 143.151184 -15.176426 -190.223160
v 137.606079 -6.999405 -183.378891
vn -0.9257 -0.0000 -0.3782
vn -0.9796 -0.0000 -0.2008
vn -0.9257 -0.0000 0.3782
vn -0.0000 1.0000 -0.0000
vn 0.5146 0.3250 0.7935
vn 0.2433 0.8946 0.3748
vn 0.7799 0.3216 -0.5369
vn 0.3715 0.8925 -0.2560
vn -0.5146 0.3250 -0.7935
vn -0.2433 0.8946 -0.3748
vn -0.7790 0.3241 -0.5368
vn -0.3683 0.8942 -0.2546
vn -0.8871 0.4240 -0.1821
vn -0.3371 0.9389 -0.0694
vn 0.7790 0.3241 0.5368
vn 0.3683 0.8942 0.2546
vn 0.8871 0.4240 0.1821
vn 0.3371 0.9389 0.0694
vn 0.8879 0.4226 -0.1820
vn 0.3383 0.9385 -0.0694
vn 0.5145 0.3273 -0.7926
vn 0.2422 0.8961 -0.3719
vn 0.8237 -0.0000 0.5670
vn -0.8237 -0.0000 -0.5670
vn 0.9796 -0.0000 -0.2008
vn -0.5441 -0.0000 -0.8390
vn 0.8237 -0.0000 -0.5670
vn 0.5441 -0.0000 -0.8390
vn 0.5441 -0.0000 0.8390
vn 0.9796 -0.0000 0.2008
vn 0.7518 -0.6412 -0.1541
vn 0.7117 -0.6872 0.1459
vn 0.3611 -0.7480 0.5568
vn -0.7122 -0.6867 -0.1459
vn -0.4423 -0.5826 -0.6819
vn 0.6635 -0.5927 -0.4567
vn 0.1226 -0.7626 0.6352
vn -0.6740 -0.7257 0.1381
vn -0.5434 -0.7515 0.3741
vn 0.5688 -0.7233 0.3916
vn -0.6346 -0.6376 -0.4368
vn 0.4484 -0.5530 -0.7022
vn -0.1214 -0.7682 0.6286
vn -0.3505 -0.7650 0.5404
vn 0.4091 0.9106 0.0585
vn -0.1465 -0.6345 0.7589
vn 0.0862 -0.8908 0.4462
vn 0.3744 -0.8908 0.2577
vn -0.3744 -0.8908 -0.2577
vn -0.0862 -0.8908 0.4462
vn 0.4452 -0.8908 -0.0912
vn 0.2473 -0.8908 0.3813
vn -0.2473 -0.8908 -0.3813
vn -0.4452 -0.8908 0.0912
vn 0.2473 -0.8908 -0.3813
vn -0.2473 -0.8908 0.3813
vn 0.4452 -0.8908 0.0912
vn -0.4452 -0.8908 -0.0912
vn 0.3744 -0.8908 -0.2577
vn -0.3744 -0.8908 0.2577
vn 0.9257 -0.0000 0.3782
vn -0.9496 -0.0282 0.3121
vn 0.9451 -0.0000 0.3269
vn -0.0081 1.0000 -0.0000
vn -0.0430 0.3926 -0.9187
vn -0.0011 1.0000 0.0027
vn 0.1647 -0.0000 0.9863
vn -0.9642 -0.0000 -0.2652
vn 0.5145 0.3273 0.7926
vn 0.2422 0.8961 0.3719
vn 0.7790 0.3241 -0.5368
vn 0.3683 0.8942 -0.2546
vn -0.5145 0.3273 -0.7926
vn -0.2422 0.8961 -0.3719
vn -0.7799 0.3216 -0.5369
vn -0.3714 0.8925 -0.2560
vn -0.8879 0.4226 -0.1819
vn -0.3383 0.9385 -0.0694
vn 0.7799 0.3216 0.5369
vn 0.3715 0.8925 0.2560
vn 0.8879 0.4226 0.1820
vn 0.3383 0.9385 0.0694
vn 0.8871 0.4240 -0.1821
vn 0.3371 0.9389 -0.0694
vn 0.5146 0.3250 -0.7935
vn 0.2433 0.8946 -0.3748
vn 0.7117 -0.6871 0.1459
vn -0.4390 -0.5874 -0.6799
vn 0.4598 -0.5348 -0.7089
vn 0.7198 -0.6941 0.0100
vn -0.9205 -0.3394 -0.1939
vn 0.1441 -0.9595 0.2418
vn -0.4091 0.9106 0.0585
vn -0.7198 -0.6941 0.0100
vn -0.1118 0.9391 0.3250
vn 0.4363 -0.8844 0.1658
vn 0.7409 0.6219 -0.2536
vn 0.9330 0.1439 -0.3299
vn -0.9330 0.1439 -0.3299
vn -0.1441 -0.9595 0.2418
vn 0.9205 -0.3394 -0.1939
vn 0.1118 0.9391 0.3250
vn -0.8350 -0.3536 0.4216
vn -0.9451 -0.0000 0.3269
vn -0.9617 -0.0000 0.2742
vn 0.9617 -0.0000 0.2742
vn 0.9496 -0.0278 0.3123
vn 0.0002 1.0000 -0.0000
vn -0.0000 1.0000 0.0002
vn 0.0009 1.0000 0.0084
vn -0.9403 -0.2192 0.2605
vn 0.0374 0.3851 -0.9221
vn 0.9500 -0.1216 0.2877
vn 0.1466 -0.6343 0.7591
vn 0.9404 -0.2173 0.2616
vn 0.0011 1.0000 0.0027
vn 0.0007 1.0000 0.0035
vn -0.0007 1.0000 0.0035
vn -0.0019 1.0000 0.0029
vn -0.0028 1.0000 0.0019
vn -0.0033 1.0000 0.0007
vn -0.0026 1.0000 0.0011
vn 0.1122 -0.0707 0.9912
vn -0.0000 -0.0000 1.0000
vn -0.9617 -0.0000 -0.2742
vn -0.9636 0.0049 -0.2673
vn -0.0062 -0.8810 -0.4732
vn 0.0062 -0.8810 -0.4732
vn -0.1139 -0.7994 -0.5898
vn 0.1139 -0.7994 -0.5898
vn 0.1210 -0.0280 -0.9923
vn 0.0361 0.4294 -0.9024
vn -0.0404 0.3850 -0.9220
vn -0.9118 -0.1626 0.3771
vn 0.0399 0.3928 -0.9188
vn 0.9048 -0.2723 0.3274
vn -0.0856 0.1777 -0.9803
vn -0.0000 0.0279 -0.9996
vn -0.7409 0.6219 -0.2536
vn -0.4363 -0.8844 0.1658
vn -0.3680 -0.7489 0.5511
vn -0.3714 -0.8028 0.4665
vn -0.7077 -0.4084 -0.5765
vn -0.7239 0.1691 -0.6689
vn 0.1208 -0.6474 -0.7525
vn 0.1411 0.3964 -0.9072
vn 0.8168 -0.5622 0.1290
vn 0.8730 -0.4869 0.0284
vn -0.1213 -0.7791 0.6151
vn -0.1209 -0.8400 0.5289
vn -0.8677 -0.4360 -0.2387
vn -0.9224 -0.1452 -0.3578
vn 0.8677 -0.4360 -0.2387
vn 0.9224 -0.1452 -0.3578
vn 0.7077 -0.4084 -0.5765
vn 0.7239 0.1691 -0.6689
vn 0.3680 -0.7489 0.5511
vn 0.3714 -0.8028 0.4665
vn -0.1208 -0.6474 -0.7525
vn -0.1411 0.3964 -0.9072
vn -0.6155 -0.6792 0.3998
vn -0.6380 -0.7029 0.3143
vn -0.4092 -0.5250 -0.7463
vn -0.4312 0.3397 -0.8359
vn 0.1213 -0.7791 0.6151
vn 0.1209 -0.8400 0.5289
vn -0.8168 -0.5622 0.1290
vn -0.8730 -0.4869 0.0284
vn 0.6155 -0.6792 0.3998
vn 0.6380 -0.7029 0.3143
vn 0.4092 -0.5250 -0.7463
vn 0.4312 0.3397 -0.8359
vt 0.696899 0.784927
vt 0.654714 0.650719
vt 0.692063 0.648912
vt 0.753495 0.831175
vt 0.756599 0.741167
vt 0.773593 0.741247
vt 0.691483 0.868232
vt 0.659550 0.786734
vt 0.531607 0.601652
vt 0.491501 0.642151
vt 0.469201 0.561070
vt 0.491501 0.896789
vt 0.531607 0.920584
vt 0.469201 0.961304
vt 0.346127 0.720695
vt 0.299967 0.727632
vt 0.284429 0.657198
vt 0.346127 0.583218
vt 0.303206 0.556763
vt 0.572634 0.660975
vt 0.543506 0.769413
vt 0.572634 0.861171
vt 0.116301 0.635801
vt 0.100699 0.558111
vt 0.115404 0.550664
vt 0.540250 0.592670
vt 0.464372 0.543476
vt 0.192831 0.717210
vt 0.177910 0.631478
vt 0.192930 0.624843
vt 0.540250 0.929890
vt 0.590754 0.856516
vt 0.756495 0.645317
vt 0.738397 0.565553
vt 0.753199 0.558219
vt 0.288876 0.733174
vt 0.342385 0.788806
vt 0.340507 0.807415
vt 0.741565 0.735599
vt 0.741465 0.646726
vt 0.738397 0.827544
vt 0.269839 0.646250
vt 0.101561 0.725987
vt 0.101534 0.637458
vt 0.116329 0.731281
vt 0.100699 0.819236
vt 0.590754 0.665933
vt 0.593246 0.761050
vt 0.174879 0.555692
vt 0.189961 0.550664
vt 0.610305 0.761203
vt 0.174879 0.807051
vt 0.177814 0.717137
vt 0.133353 0.635840
vt 0.773489 0.645397
vt 0.206960 0.551067
vt 0.769924 0.558297
vt 0.209930 0.625246
vt 0.209830 0.717613
vt 0.205650 0.814083
vt 0.132456 0.550703
vt 0.115484 0.822568
vt 0.133382 0.731320
vt 0.611127 0.497239
vt 0.532231 0.443857
vt 0.549090 0.435510
vt 0.480697 0.363742
vt 0.501450 0.361449
vt 0.464372 0.269090
vt 0.485740 0.174310
vt 0.506112 0.186331
vt 0.943229 0.172766
vt 0.929031 0.184904
vt 0.881391 0.110843
vt 0.788644 0.564107
vt 0.791692 0.644624
vt 0.228342 0.637337
vt 0.541549 0.093832
vt 0.557703 0.111935
vt 0.891696 0.092651
vt 0.808457 0.061495
vt 0.812800 0.039269
vt 0.721331 0.044374
vt 0.486358 0.273949
vt 0.791788 0.733231
vt 0.228250 0.722725
vt 0.623301 0.039909
vt 0.633278 0.062086
vt 0.718552 0.020749
vt 0.781697 0.446194
vt 0.709365 0.460744
vt 0.709365 0.460744
vt 0.781697 0.446194
vt 0.844080 0.405046
vt 0.798942 0.463906
vt 0.544413 0.203331
vt 0.540495 0.346667
vt 0.890585 0.200298
vt 0.944123 0.272404
vt 0.649383 0.100772
vt 0.586999 0.141920
vt 0.579141 0.406748
vt 0.638307 0.446780
vt 0.622024 0.484858
vt 0.528186 0.275305
vt 0.902893 0.271661
vt 0.924369 0.360022
vt 0.851939 0.140218
vt 0.792772 0.100186
vt 0.797203 0.484267
vt 0.721715 0.086222
vt 0.709150 0.501979
vt 0.257903 0.264968
vt 0.094635 0.351792
vt 0.087459 0.214502
vt 0.331809 0.434255
vt 0.217743 0.380066
vt 0.178524 0.111369
vt 0.415698 0.193831
vt 0.314485 0.102807
vt 0.021680 0.592784
vt 0.058866 0.729624
vt 0.021345 0.729624
vt 0.651803 0.932261
vt 0.654134 0.870039
vt 0.689138 0.912476
vt 0.021092 0.797024
vt 0.182213 0.481895
vt 0.274434 0.509166
vt 0.927181 0.620915
vt 0.897681 0.543476
vt 0.927661 0.549357
vt 0.241359 0.020749
vt 0.020749 0.561923
vt 0.059201 0.592784
vt 0.690049 0.567754
vt 0.770489 0.831255
vt 0.287779 0.550664
vt 0.189677 0.813704
vt 0.464372 0.979251
vt 0.132537 0.822607
vt 0.225335 0.811927
vt 0.792772 0.100186
vt 0.851939 0.140218
vt 0.902893 0.271661
vt 0.886667 0.343635
vt 0.721715 0.086222
vt 0.844080 0.405046
vt 0.579141 0.406748
vt 0.890585 0.200298
vt 0.799276 0.547801
vt 0.818562 0.543476
vt 0.422874 0.331121
vt 0.682558 0.925507
vt 0.667752 0.931490
vt 0.027068 0.815086
vt 0.041680 0.822567
vt 0.058463 0.822567
vt 0.092939 0.446086
vt 0.836321 0.568747
vt 0.806404 0.589378
vt 0.898438 0.692223
vt 0.897231 0.615215
vt 0.305488 0.871829
vt 0.284692 0.857324
vt 0.314243 0.848913
vt 0.903912 0.361347
vt 0.861326 0.422758
vt 0.277716 0.917406
vt 0.269839 0.871829
vt 0.422874 0.083859
vt 0.338230 0.034781
vt 0.147007 0.043898
vt 0.069539 0.100704
vt 0.020749 0.182520
vt 0.058030 0.550664
vt 0.040978 0.550664
vt 0.026471 0.553962
vt 0.683550 0.550174
vt 0.668777 0.543476
vt 0.651803 0.544298
vt 0.941614 0.377734
vt 0.885630 0.447634
vt 0.814448 0.501979
vt 0.877819 0.688681
vt 0.881942 0.612641
vt 0.928417 0.698104
vt 0.313365 0.917406
vt 0.877819 0.551129
vt 0.781696 0.446194
vt 0.709365 0.460744
vt 0.544413 0.203331
s 0
f 17/1/1 85/2/1 16/3/1
f 34/4/2 24/5/2 11/6/2
f 19/7/3 88/8/3 17/1/3
f 26/9/4 16/10/4 46/11/4
f 19/12/4 30/13/4 49/14/4
f 20/15/4 28/16/4 32/17/4
f 18/18/4 32/17/4 35/19/4
f 38/20/4 17/21/4 16/10/4
f 17/21/4 43/22/4 19/12/4
f 21/23/5 48/24/5 47/25/5
f 27/26/6 46/11/6 48/27/6
f 23/28/7 45/29/7 44/30/7
f 31/31/8 43/22/8 45/32/8
f 22/33/9 53/34/9 52/35/9
f 29/36/10 51/37/10 53/38/10
f 22/33/11 33/39/11 29/40/11
f 29/36/12 32/17/12 28/16/12
f 24/5/13 36/41/13 33/39/13
f 33/42/14 35/19/14 32/17/14
f 21/23/15 39/43/15 27/44/15
f 27/26/16 38/20/16 26/9/16
f 37/45/17 42/46/17 39/43/17
f 39/47/18 41/48/18 38/20/18
f 44/30/19 42/49/19 40/50/19
f 45/32/20 41/48/20 42/51/20
f 23/28/21 50/52/21 31/53/21
f 31/31/22 49/14/22 30/13/22
f 37/45/23 21/23/23 14/54/23
f 24/5/24 22/33/24 13/55/24
f 44/30/25 40/50/25 7/56/25
f 22/33/26 52/35/26 1/57/26
f 23/28/27 44/30/27 6/58/27
f 23/28/28 12/59/28 2/60/28
f 21/23/29 47/25/29 3/61/29
f 40/62/30 37/45/30 8/63/30
f 6/64/31 7/65/31 79/66/31
f 7/65/32 8/67/32 74/68/32
f 14/69/33 3/70/33 72/71/33
f 11/72/34 76/73/34 81/74/34
f 1/57/35 70/75/35 75/76/35
f 12/59/36 6/58/36 80/77/36
f 3/70/37 4/78/37 71/79/37
f 10/80/38 81/74/38 82/81/38
f 9/82/39 82/81/39 84/83/39
f 8/67/40 14/69/40 73/84/40
f 13/55/41 75/76/41 76/85/41
f 2/60/42 12/59/42 83/86/42
f 4/78/43 5/87/43 78/88/43
f 15/89/44 84/83/44 78/88/44
f 145/90/45 126/91/45 118/92/45 112/93/45
f 55/94/46 102/95/46 56/93/46
f 57/96/47 72/71/47 71/79/47
f 62/97/48 74/68/48 73/84/48
f 65/98/49 76/73/49 75/99/49
f 59/100/50 58/101/50 71/79/50
f 61/102/51 60/103/51 80/104/51
f 68/105/52 73/84/52 72/71/52
f 67/106/53 75/99/53 70/107/53
f 64/108/54 63/109/54 82/81/54
f 66/92/55 56/93/55 77/110/55
f 69/111/56 59/100/56 78/88/56
f 61/102/57 79/66/57 74/68/57
f 64/108/58 81/74/58 76/73/58
f 60/103/59 66/92/59 83/112/59
f 63/109/60 69/111/60 84/83/60
f 89/113/4 93/114/4 90/115/4
f 89/113/4 91/116/4 92/117/4
f 87/118/4 89/113/4 90/115/4
f 85/119/4 89/113/4 86/120/4
f 18/121/61 93/122/61 20/123/61
f 2/124/62 91/125/62 49/126/62
f 93/122/63 51/127/63 20/123/63
f 94/128/64 92/117/64 2/129/64
f 94/130/65 97/131/65 1/132/65
f 87/118/66 5/133/66 86/120/66
f 35/134/67 90/135/67 18/121/67
f 85/2/68 46/136/68 16/3/68
f 17/1/1 88/8/1 85/2/1
f 34/4/2 11/6/2 10/137/2
f 19/7/3 91/125/3 88/8/3
f 26/9/4 38/20/4 16/10/4
f 19/12/4 43/22/4 30/13/4
f 20/15/4 51/37/4 28/16/4
f 18/18/4 20/15/4 32/17/4
f 38/20/4 41/48/4 17/21/4
f 17/21/4 41/48/4 43/22/4
f 21/23/69 27/44/69 48/24/69
f 27/26/70 26/9/70 46/11/70
f 23/28/71 31/53/71 45/29/71
f 31/31/72 30/13/72 43/22/72
f 22/33/73 29/40/73 53/34/73
f 29/36/74 28/16/74 51/37/74
f 22/33/75 24/5/75 33/39/75
f 29/36/76 33/42/76 32/17/76
f 24/5/77 34/4/77 36/41/77
f 33/42/78 36/138/78 35/19/78
f 21/23/79 37/45/79 39/43/79
f 27/26/80 39/47/80 38/20/80
f 37/45/81 40/62/81 42/46/81
f 39/47/82 42/51/82 41/48/82
f 44/30/83 45/29/83 42/49/83
f 45/32/84 43/22/84 41/48/84
f 23/28/85 25/139/85 50/52/85
f 31/31/86 50/140/86 49/14/86
f 37/45/23 14/54/23 8/63/23
f 24/5/24 13/55/24 11/6/24
f 44/30/25 7/56/25 6/58/25
f 22/33/26 1/57/26 13/55/26
f 23/28/27 6/58/27 12/59/27
f 23/28/28 2/60/28 25/139/28
f 21/23/29 3/61/29 14/54/29
f 40/62/30 8/63/30 7/141/30
f 6/64/31 79/66/31 80/104/31
f 7/65/87 74/68/87 79/66/87
f 14/69/33 72/71/33 73/84/33
f 11/72/34 81/74/34 10/80/34
f 1/57/88 75/76/88 13/55/88
f 12/59/36 80/77/36 83/86/36
f 3/70/37 71/79/37 72/71/37
f 10/80/38 82/81/38 9/82/38
f 9/82/39 84/83/39 15/89/39
f 8/67/40 73/84/40 74/68/40
f 13/55/41 76/85/41 11/6/41
f 2/60/89 83/86/89 77/142/89
f 4/78/43 78/88/43 71/79/43
f 15/89/44 78/88/44 5/87/44
f 141/97/90 122/105/90 108/105/90 109/97/90
f 147/143/91 130/144/91 116/108/91 117/109/91
f 125/96/92 134/101/92 106/101/92 107/96/92
f 150/145/93 120/146/93 105/146/93 110/106/93
f 148/147/94 147/143/94 117/109/94 119/111/94
f 120/146/95 142/148/95 104/94/95 105/146/95
f 122/105/96 125/96/96 107/96/96 108/105/96
f 126/91/97 128/103/97 115/103/97 118/92/97
f 128/103/98 138/149/98 114/102/98 115/103/98
f 130/144/99 133/150/99 111/98/99 116/108/99
f 134/101/100 137/100/100 113/100/100 106/101/100
f 138/149/101 141/97/101 109/97/101 114/102/101
f 142/148/102 145/90/102 112/93/102 104/94/102
f 70/75/103 97/151/103 96/152/103
f 57/96/47 71/79/47 58/101/47
f 62/97/48 73/84/48 68/105/48
f 65/98/49 75/99/49 67/106/49
f 59/100/50 71/79/50 78/88/50
f 61/102/51 80/104/51 79/66/51
f 68/105/52 72/71/52 57/96/52
f 67/106/53 70/107/53 54/146/53
f 64/108/54 82/81/54 81/74/54
f 66/92/55 77/110/55 83/112/55
f 69/111/56 78/88/56 84/83/56
f 61/102/57 74/68/57 62/97/57
f 64/108/58 76/73/58 65/98/58
f 60/103/59 83/112/59 80/104/59
f 63/109/60 84/83/60 82/81/60
f 89/113/4 92/117/4 93/114/4
f 89/113/4 88/153/4 91/116/4
f 87/118/4 86/120/4 89/113/4
f 85/119/4 88/153/4 89/113/4
f 18/121/61 90/135/61 93/122/61
f 91/125/104 19/7/104 49/126/104
f 49/126/105 50/154/105 25/155/105
f 25/155/105 2/124/105 49/126/105
f 53/156/106 51/127/106 52/157/106
f 52/157/106 51/127/106 1/158/106
f 1/158/107 51/127/107 93/122/107
f 94/128/108 1/159/108 92/117/108
f 1/159/109 93/114/109 92/117/109
f 92/117/110 91/116/110 2/129/110
f 70/75/111 101/160/111 54/161/111
f 94/130/112 99/162/112 103/163/112
f 77/164/113 99/165/113 2/166/113
f 55/94/114 101/167/114 100/168/114
f 77/164/115 102/169/115 98/170/115
f 85/119/116 86/120/116 3/171/116
f 3/171/117 86/120/117 4/172/117
f 4/172/118 86/120/118 5/133/118
f 5/133/119 87/118/119 15/173/119
f 15/173/120 87/118/120 9/174/120
f 9/174/121 90/115/121 10/175/121
f 87/118/122 90/115/122 9/174/122
f 90/135/123 35/134/123 10/176/123
f 10/176/124 35/134/124 34/177/124
f 34/177/124 35/134/124 36/178/124
f 48/179/125 46/136/125 47/180/125
f 47/180/125 46/136/125 3/181/125
f 3/181/126 46/136/126 85/2/126
f 101/167/127 96/182/127 95/183/127
f 95/183/128 98/184/128 102/95/128
f 101/167/129 95/183/129 100/168/129
f 95/183/130 102/95/130 100/168/130
f 98/185/131 95/186/131 99/162/131
f 99/162/132 95/186/132 103/163/132
f 55/94/46 100/168/46 102/95/46
f 94/130/133 103/163/133 97/131/133
f 70/75/134 1/57/134 97/151/134
f 70/75/111 96/152/111 101/160/111
f 94/130/135 2/187/135 99/162/135
f 77/164/136 98/170/136 99/165/136
f 55/94/114 54/146/114 101/167/114
f 77/164/115 56/188/115 102/169/115
f 96/189/137 97/131/137 103/163/137 95/186/137
f 115/103/138 109/97/138 118/92/138
f 112/93/138 106/101/138 104/94/138
f 104/94/138 113/100/138 105/146/138
f 105/146/138 113/100/138 110/106/138
f 110/106/138 119/111/138 111/98/138
f 113/100/138 119/111/138 110/106/138
f 111/98/138 117/109/138 116/108/138
f 117/109/138 111/98/138 119/111/138
f 113/100/138 104/94/138 106/101/138
f 106/101/138 112/93/138 107/96/138
f 107/96/138 112/93/138 108/105/138
f 108/105/138 118/92/138 109/97/138
f 112/93/138 118/92/138 108/105/138
f 109/97/138 115/103/138 114/102/138
f 133/150/139 150/145/139 110/106/139 111/98/139
f 137/100/140 148/147/140 119/111/140 113/100/140
f 59/100/141 69/111/141 149/147/141 136/100/141
f 136/100/142 149/147/142 148/147/142 137/100/142
f 65/98/143 67/106/143 151/106/143 132/150/143
f 132/150/144 151/106/144 150/145/144 133/150/144
f 55/94/145 56/93/145 144/190/145 143/94/145
f 143/94/146 144/190/146 145/90/146 142/148/146
f 61/102/147 62/97/147 140/97/147 139/149/147
f 139/149/148 140/97/148 141/97/148 138/149/148
f 58/101/149 59/100/149 136/100/149 135/101/149
f 135/101/150 136/100/150 137/100/150 134/101/150
f 64/108/151 65/98/151 132/150/151 131/144/151
f 131/144/152 132/150/152 133/150/152 130/144/152
f 60/103/153 61/102/153 139/149/153 129/103/153
f 129/103/154 139/149/154 138/149/154 128/103/154
f 66/92/155 60/103/155 129/103/155 127/191/155
f 127/191/156 129/103/156 128/103/156 126/91/156
f 68/105/157 57/96/157 124/192/157 123/105/157
f 123/105/158 124/192/158 125/96/158 122/105/158
f 54/146/159 55/94/159 143/94/159 121/146/159
f 121/146/160 143/94/160 142/148/160 120/146/160
f 69/111/161 63/109/161 146/143/161 149/147/161
f 149/147/162 146/143/162 147/143/162 148/147/162
f 67/106/163 54/146/163 121/146/163 151/106/163
f 151/106/164 121/146/164 120/146/164 150/145/164
f 57/96/165 58/101/165 135/101/165 124/192/165
f 124/192/166 135/101/166 134/101/166 125/96/166
f 63/109/167 64/108/167 131/144/167 146/143/167
f 146/143/168 131/144/168 130/144/168 147/143/168
f 62/97/169 68/105/169 123/105/169 140/97/169
f 140/97/170 123/105/170 122/105/170 141/97/170
f 56/93/171 66/92/171 127/191/171 144/190/171
f 144/190/172 127/191/172 126/91/172 145/90/172
l 95 97
