# Blender 4.0.2
# www.blender.org
g Plane_Plane.028
v 90.590317 8.442365 224.476868
v 82.724365 8.442365 229.084061
v 83.237137 8.442365 233.102768
v 84.533112 8.442365 244.385223
v 88.211792 8.442365 251.319901
v 95.665421 8.186863 262.747528
v 103.118034 8.377790 271.725311
v 115.133087 8.368264 268.046021
v 126.758057 8.117461 264.123505
v 131.915939 8.442365 254.380127
v 136.886963 8.442365 252.569504
v 134.751923 8.442365 238.972672
v 125.987030 8.442365 229.533539
v 121.155106 8.442365 221.892365
v 114.412857 8.442365 216.161453
v 110.030411 8.442365 216.835663
v 89.002731 10.821304 222.625000
v 80.448410 10.821304 227.635391
v 80.852997 10.821304 232.509644
v 82.847183 10.821304 244.716507
v 86.398026 10.821304 252.546082
v 93.412544 10.605382 263.830383
v 101.536430 10.813018 273.535461
v 114.370110 10.874729 270.593445
v 127.677521 10.549809 266.512451
v 134.025970 10.821304 255.901337
v 139.351013 10.821304 253.176132
v 137.029129 10.821304 238.389389
v 127.497177 10.821304 228.124207
v 122.242378 10.821304 219.814301
v 114.910095 10.821304 213.581863
v 110.144119 10.821304 214.315079
v 87.735100 14.151368 221.923553
v 87.803665 12.688257 221.226318
v 78.733978 12.683311 226.544128
v 79.231522 14.151368 226.904221
v 79.065430 12.674654 232.064941
v 79.714592 14.151368 231.157776
v 81.588211 12.667201 244.963898
v 82.660706 14.151368 244.624924
v 85.037933 12.674895 253.465561
v 85.992996 14.151368 253.984344
v 91.711014 12.502516 264.646484
v 92.452446 13.961548 264.603271
v 100.334526 12.734702 274.909485
v 100.844177 14.175852 274.598572
v 113.787636 12.859530 272.535217
v 114.087868 14.276243 271.977539
v 128.380951 12.482081 268.338898
v 128.063797 13.911394 267.914978
v 135.639511 12.711567 257.064606
v 135.176590 14.151368 256.815216
v 141.229889 12.706163 253.638702
v 140.623962 14.151368 253.774002
v 138.758057 12.698041 237.946548
v 138.227371 14.151368 238.511459
v 128.639679 12.691410 227.057953
v 127.949860 14.151368 227.443359
v 123.064514 12.690387 218.243011
v 122.188995 14.151368 218.333160
v 115.286415 12.692095 211.629547
v 114.984581 14.151368 212.209412
v 110.230148 12.691492 212.408035
v 110.818382 14.151368 212.850342
vn 0.0001 -1.0000 -0.0030
vn -0.7681 -0.6252 0.1380
vn -0.7585 -0.6430 0.1062
vn 0.7043 -0.7013 -0.1106
vn -0.6997 -0.6269 0.3426
vn 0.5533 -0.6556 -0.5138
vn -0.6106 -0.6978 0.3745
vn 0.6430 -0.6490 -0.4066
vn -0.5391 -0.7027 0.4644
vn 0.4668 -0.6931 -0.5492
vn 0.2092 -0.5890 0.7806
vn -0.1054 -0.7208 -0.6851
vn 0.2051 -0.6951 0.6890
vn -0.3558 -0.7103 -0.6074
vn -0.2628 -0.6957 -0.6685
vn 0.6432 -0.6842 0.3436
vn -0.7283 -0.6811 0.0751
vn 0.3153 -0.6232 0.7157
vn -0.2676 -0.6819 -0.6808
vn 0.7174 -0.6875 -0.1127
vn -0.7264 -0.6126 0.3117
vn 0.5623 -0.6412 -0.5221
vn -0.6280 -0.6842 0.3708
vn 0.6532 -0.6346 -0.4131
vn -0.5479 -0.6888 0.4747
vn 0.4753 -0.6792 -0.5592
vn 0.1635 -0.5939 0.7877
vn -0.1075 -0.7074 -0.6986
vn 0.1917 -0.6835 0.7043
vn 0.6314 -0.6776 0.3771
vn -0.0002 1.0000 0.0008
vn -0.7373 -0.6736 0.0516
vn 0.3777 -0.6383 0.6708
vn -0.4719 0.3595 -0.8051
vn -0.9241 0.3742 0.0773
vn -0.8191 0.5479 0.1701
vn -0.7951 0.5262 0.3017
vn -0.7901 0.3785 0.4822
vn -0.7126 0.3795 0.5901
vn 0.1766 0.2401 0.9546
vn 0.2711 0.3153 0.9095
vn 0.7895 0.3353 0.5141
vn 0.4936 0.2162 0.8424
vn 0.9092 0.3911 -0.1431
vn 0.6476 0.4676 -0.6017
vn 0.7437 0.4751 -0.4703
vn 0.5938 0.3996 -0.6984
vn -0.1431 0.3396 -0.9296
vn -0.3364 0.3934 -0.8556
vn -0.3626 -0.6966 -0.6190
vt 0.755472 0.638815
vt 0.783622 0.459546
vt 0.730286 0.321760
vt 0.619168 0.216569
vt 0.476938 0.138046
vt 0.322855 0.191382
vt 0.183588 0.244719
vt 0.139141 0.366208
vt 0.158402 0.501030
vt 0.053211 0.640297
vt 0.069508 0.769193
vt 0.173217 0.829937
vt 0.429528 0.930683
vt 0.487309 0.939573
vt 0.576203 0.864013
vt 0.639910 0.763267
vt 0.053211 0.640297
vt 0.783622 0.459546
vt 0.183588 0.244719
vt 0.619168 0.216569
vt 0.735023 0.628885
vt 0.622609 0.749947
vt 0.559598 0.849592
vt 0.480797 0.916574
vt 0.435228 0.909563
vt 0.182746 0.810321
vt 0.089735 0.755843
vt 0.075890 0.646344
vt 0.181204 0.506913
vt 0.161438 0.368544
vt 0.200606 0.261483
vt 0.330286 0.211818
vt 0.474903 0.161758
vt 0.606234 0.234263
vt 0.711780 0.334180
vt 0.761237 0.461945
vt 0.730286 0.321760
s 0
f 12/1/1 11/2/1 10/3/1 9/4/1 8/5/1 7/6/1 6/7/1 5/8/1 4/9/1 3/10/1 2/11/1 1/12/1 16/13/1 15/14/1 14/15/1 13/16/1
f 19/10/2 20/9/2 39/9/2 37/17/2
f 3/10/3 4/9/3 20/9/3 19/10/3
f 11/2/4 12/1/4 28/1/4 27/2/4
f 4/9/5 5/8/5 21/8/5 20/9/5
f 12/1/6 13/16/6 29/16/6 28/1/6
f 5/8/7 6/7/7 22/7/7 21/8/7
f 13/16/8 14/15/8 30/15/8 29/16/8
f 6/7/9 7/6/9 23/6/9 22/7/9
f 14/15/10 15/14/10 31/14/10 30/15/10
f 7/6/11 8/5/11 24/5/11 23/6/11
f 15/14/12 16/13/12 32/13/12 31/14/12
f 8/5/13 9/4/13 25/4/13 24/5/13
f 1/12/14 2/11/14 18/11/14 17/12/14
f 16/13/15 1/12/15 17/12/15 32/13/15
f 9/4/16 10/3/16 26/3/16 25/4/16
f 2/11/17 3/10/17 19/10/17 18/11/17
f 10/3/18 11/2/18 27/2/18 26/3/18
f 32/13/19 17/12/19 34/12/19 63/13/19
f 27/2/20 28/1/20 55/1/20 53/18/20
f 20/9/21 21/8/21 41/8/21 39/9/21
f 28/1/22 29/16/22 57/16/22 55/1/22
f 21/8/23 22/7/23 43/7/23 41/8/23
f 29/16/24 30/15/24 59/15/24 57/16/24
f 22/7/25 23/6/25 45/6/25 43/19/25
f 30/15/26 31/14/26 61/14/26 59/15/26
f 23/6/27 24/5/27 47/5/27 45/6/27
f 31/14/28 32/13/28 63/13/28 61/14/28
f 24/5/29 25/4/29 49/4/29 47/5/29
f 25/4/30 26/3/30 51/3/30 49/20/30
f 56/21/31 58/22/31 60/23/31 62/24/31 64/25/31 33/26/31 36/27/31 38/28/31 40/29/31 42/30/31 44/31/31 46/32/31 48/33/31 50/34/31 52/35/31 54/36/31
f 18/11/32 19/10/32 37/10/32 35/11/32
f 26/3/33 27/2/33 53/18/33 51/37/33
f 34/12/34 35/11/34 36/27/34 33/26/34
f 35/11/35 37/10/35 38/28/35 36/27/35
f 37/17/36 39/9/36 40/29/36 38/28/36
f 39/9/37 41/8/37 42/30/37 40/29/37
f 41/8/38 43/7/38 44/31/38 42/30/38
f 43/19/39 45/6/39 46/32/39 44/31/39
f 45/6/40 47/5/40 48/33/40 46/32/40
f 47/5/41 49/4/41 50/34/41 48/33/41
f 49/20/42 51/3/42 52/35/42 50/34/42
f 51/37/43 53/18/43 54/36/43 52/35/43
f 53/18/44 55/1/44 56/21/44 54/36/44
f 55/1/45 57/16/45 58/22/45 56/21/45
f 57/16/46 59/15/46 60/23/46 58/22/46
f 59/15/47 61/14/47 62/24/47 60/23/47
f 61/14/48 63/13/48 64/25/48 62/24/48
f 63/13/49 34/12/49 33/26/49 64/25/49
f 17/12/50 18/11/50 35/11/50 34/12/50
