# Blender 4.0.2
# www.blender.org
g Level2StartPlat_Plane.025
v 141.235779 10.200829 -205.807037
v 187.636597 10.384254 -205.807037
v 187.636597 10.135693 -97.072556
v 164.436172 10.135693 -92.593109
v 141.235764 10.135693 -97.072556
v 220.446930 10.135693 -173.959442
v 225.061768 10.135693 -151.439789
v 220.446930 10.135693 -128.920135
v 108.425430 10.135693 -128.920151
v 103.810585 10.135693 -151.439804
v 108.425430 10.135693 -173.959442
v 207.304947 10.135693 -193.050690
v 121.567413 10.135693 -193.050690
v 207.304947 10.135693 -109.828903
v 121.567413 10.135693 -109.828903
v 194.750626 19.251122 -122.714417
v 207.307281 19.251122 -153.444962
v 121.565079 19.251122 -153.444962
v 194.750626 19.251122 -184.175507
v 134.121735 19.251122 -184.175507
v 207.304947 14.251122 -109.828903
v 121.567413 14.251122 -193.050690
v 207.304947 14.251122 -193.050690
v 108.425430 14.251122 -173.959442
v 187.636597 14.251122 -205.807037
v 204.434280 19.251122 -112.950195
v 206.464142 17.786655 -110.743111
v 124.438072 19.251122 -189.929398
v 122.408203 17.786655 -192.136490
v 204.434280 19.251122 -189.929398
v 206.464142 17.786655 -192.136475
v 114.531967 19.251122 -175.599960
v 110.213989 17.786655 -174.439941
v 103.810585 14.251122 -151.439804
v 109.555313 19.251122 -151.439804
v 105.493187 17.786655 -151.439804
v 220.446930 14.251122 -128.920135
v 214.340393 19.251122 -127.279633
v 218.658356 17.786655 -128.439651
v 225.061768 14.251122 -151.439789
v 219.317047 19.251122 -151.439789
v 223.379181 17.786655 -151.439789
v 214.340393 19.251122 -175.599945
v 220.446930 14.251122 -173.959442
v 218.658356 17.786655 -174.439941
v 189.366165 19.251122 -103.138374
v 187.636597 14.251122 -97.072556
v 188.143173 17.786655 -98.849182
v 189.366165 19.251122 -199.741226
v 188.143173 17.786655 -204.030396
v 139.506195 19.251122 -199.741226
v 141.235779 14.251122 -205.807037
v 140.729187 17.786655 -204.030396
v 146.996857 0.371445 -193.713150
v 164.700607 0.371445 -197.131317
v 182.404358 0.371445 -193.713150
v 182.404358 0.371445 -111.775574
v 164.700607 0.371445 -108.357407
v 146.996857 0.371445 -111.775574
v 207.248505 0.371445 -169.632477
v 210.709320 0.371445 -152.744354
v 207.248505 0.371445 -135.856232
v 122.152710 0.371445 -135.856232
v 118.691902 0.371445 -152.744354
v 122.152710 0.371445 -169.632477
v 197.340225 0.371445 -184.026154
v 132.060989 0.371445 -184.026154
v 197.340225 0.371445 -121.462563
v 132.060989 0.371445 -121.462563
v 143.253342 5.387646 -203.003326
v 164.700607 5.387646 -98.344444
v 186.147873 5.387646 -102.485397
v 204.329987 5.387646 -114.277809
v 216.478882 5.387646 -131.926407
v 125.071228 5.387646 -191.210907
v 112.922333 5.387646 -173.562302
v 186.147873 5.387646 -203.003326
v 143.253342 5.387646 -102.485397
v 220.745010 5.387646 -152.744354
v 216.478882 5.387646 -173.562302
v 108.656204 5.387646 -152.744354
v 112.922333 5.387646 -131.926407
v 204.329987 5.387646 -191.210907
v 125.071228 5.387646 -114.277809
v 194.750626 10.195965 -122.714417
v 164.436172 10.195965 -109.985413
v 134.121735 10.195965 -122.714417
v 207.307281 10.195965 -153.444962
v 164.436172 10.195965 -151.439789
v 121.565079 10.195965 -153.444962
v 194.750626 10.195965 -184.175507
v 164.436172 10.195965 -180.863129
v 134.121735 10.195965 -184.175507
v 164.436188 10.196037 -206.894409
v 164.710983 -0.306488 -211.475616
v 143.263718 -1.578163 -208.825424
v 141.246140 3.235020 -208.784729
v 186.158234 -1.578163 -208.825424
v 187.646957 3.418446 -208.784729
v 164.710983 -6.594364 -202.953400
v 147.007233 -6.594364 -199.535248
v 182.414734 -6.594364 -199.535248
v 164.446548 3.230228 -209.803146
vn -0.9257 -0.0000 -0.3782
vn -0.9796 -0.0000 -0.2008
vn -0.9257 -0.0000 0.3782
vn -0.0000 1.0000 -0.0000
vn 0.5146 0.3250 0.7935
vn 0.2433 0.8946 0.3748
vn 0.7799 0.3216 -0.5369
vn 0.3714 0.8925 -0.2560
vn -0.5146 0.3250 -0.7935
vn -0.2433 0.8946 -0.3748
vn -0.7790 0.3241 -0.5368
vn -0.3683 0.8942 -0.2546
vn -0.8871 0.4240 -0.1821
vn -0.3371 0.9389 -0.0694
vn 0.7790 0.3241 0.5368
vn 0.3683 0.8942 0.2546
vn 0.8871 0.4240 0.1821
vn 0.3371 0.9389 0.0694
vn 0.8879 0.4226 -0.1820
vn 0.3383 0.9385 -0.0694
vn 0.5145 0.3273 -0.7926
vn 0.2422 0.8961 -0.3719
vn 0.8237 -0.0000 0.5670
vn -0.8237 -0.0000 -0.5670
vn 0.9796 -0.0000 -0.2008
vn -0.5441 -0.0000 -0.8390
vn 0.8237 -0.0000 -0.5670
vn 0.5441 -0.0000 -0.8390
vn 0.5441 -0.0000 0.8390
vn 0.9796 -0.0000 0.2008
vn 0.7518 -0.6412 -0.1541
vn 0.7117 -0.6872 0.1459
vn 0.3611 -0.7480 0.5568
vn -0.7122 -0.6867 -0.1459
vn -0.4423 -0.5826 -0.6819
vn 0.6635 -0.5927 -0.4567
vn 0.1226 -0.7626 0.6352
vn -0.6740 -0.7257 0.1381
vn -0.5434 -0.7515 0.3741
vn 0.5688 -0.7233 0.3916
vn -0.6346 -0.6376 -0.4368
vn 0.4484 -0.5530 -0.7022
vn -0.1214 -0.7682 0.6286
vn -0.3505 -0.7650 0.5404
vn -0.0000 -1.0000 -0.0000
vn -0.1465 -0.6345 0.7589
vn 0.0862 -0.8908 0.4462
vn 0.3744 -0.8908 0.2577
vn -0.3744 -0.8908 -0.2577
vn -0.0862 -0.8908 0.4462
vn 0.4452 -0.8908 -0.0912
vn 0.2473 -0.8908 0.3813
vn -0.2473 -0.8908 -0.3813
vn -0.4452 -0.8908 0.0912
vn 0.2473 -0.8908 -0.3813
vn -0.2473 -0.8908 0.3813
vn 0.4452 -0.8908 0.0912
vn -0.4452 -0.8908 -0.0912
vn 0.3744 -0.8908 -0.2577
vn -0.3744 -0.8908 0.2577
vn 0.9257 -0.0000 0.3782
vn -0.9496 -0.0282 0.3121
vn 0.9451 -0.0000 0.3269
vn -0.0081 1.0000 -0.0000
vn -0.0430 0.3926 -0.9187
vn -0.0011 1.0000 0.0027
vn 0.1647 -0.0000 0.9863
vn -0.9642 -0.0000 -0.2652
vn 0.5145 0.3273 0.7926
vn 0.2422 0.8961 0.3719
vn 0.7790 0.3241 -0.5368
vn 0.3683 0.8942 -0.2546
vn -0.5145 0.3273 -0.7926
vn -0.2422 0.8961 -0.3719
vn -0.7799 0.3216 -0.5369
vn -0.3714 0.8925 -0.2560
vn -0.8879 0.4226 -0.1819
vn -0.3383 0.9385 -0.0694
vn 0.7799 0.3216 0.5369
vn 0.3714 0.8925 0.2560
vn 0.8879 0.4226 0.1820
vn 0.3383 0.9385 0.0694
vn 0.8871 0.4240 -0.1821
vn 0.3371 0.9389 -0.0694
vn 0.5146 0.3250 -0.7935
vn 0.2433 0.8946 -0.3748
vn 0.7117 -0.6871 0.1459
vn -0.4390 -0.5874 -0.6799
vn -0.6740 -0.7258 0.1381
vn 0.4598 -0.5348 -0.7089
vn -0.8350 -0.3536 0.4216
vn -0.9451 -0.0000 0.3269
vn -0.9617 -0.0000 0.2742
vn 0.9617 -0.0000 0.2742
vn 0.9496 -0.0278 0.3123
vn 0.0002 1.0000 -0.0000
vn -0.0000 1.0000 0.0002
vn 0.0009 1.0000 0.0084
vn -0.9403 -0.2192 0.2605
vn 0.0374 0.3851 -0.9221
vn 0.9500 -0.1216 0.2877
vn 0.1466 -0.6343 0.7591
vn 0.9404 -0.2173 0.2616
vn 0.0011 1.0000 0.0027
vn 0.0007 1.0000 0.0035
vn -0.0007 1.0000 0.0035
vn -0.0019 1.0000 0.0029
vn -0.0028 1.0000 0.0019
vn -0.0033 1.0000 0.0007
vn -0.0026 1.0000 0.0011
vn 0.1122 -0.0707 0.9912
vn -0.0000 -0.0000 1.0000
vn -0.9617 -0.0000 -0.2742
vn -0.9636 0.0049 -0.2673
vn -0.0062 -0.8810 -0.4732
vn 0.0062 -0.8810 -0.4732
vn -0.1139 -0.7994 -0.5898
vn 0.1139 -0.7994 -0.5898
vn 0.1210 -0.0280 -0.9923
vn 0.0361 0.4294 -0.9024
vn -0.0404 0.3850 -0.9220
vn -0.9118 -0.1626 0.3771
vn 0.0399 0.3928 -0.9188
vn 0.9048 -0.2723 0.3274
vn -0.0856 0.1777 -0.9803
vt 0.750000 0.500000
vt 0.750000 0.250000
vt 0.000000 0.500000
vt 0.000000 0.750000
vt 0.750000 0.750000
vt 0.927615 0.075013
vt 0.750000 0.060795
vt 0.927615 0.924987
vt 0.750000 0.939205
vt 0.250000 0.750000
vt 0.072385 0.924987
vt 0.059407 0.750000
vt 0.250000 0.500000
vt 0.059407 0.750000
vt 0.047379 0.500000
vt 0.940593 0.250000
vt 0.940593 0.750000
vt 1.000000 0.000000
vt 0.757421 0.000000
vt 0.750000 0.000000
vt 0.998891 0.001490
vt 1.000000 1.000000
vt 1.000000 0.757604
vt 1.000000 0.750000
vt 0.998891 0.998510
vt 0.000000 1.000000
vt 0.242579 1.000000
vt 0.250000 1.000000
vt 0.001109 0.998510
vt 0.250000 0.939205
vt 0.000000 0.757604
vt 0.000000 0.500000
vt 1.000000 0.242396
vt 1.000000 0.250000
vt 1.000000 0.500000
vt 0.952621 0.500000
vt 0.757421 1.000000
vt 0.750000 1.000000
vt 0.500000 0.000000
vt 0.000000 0.250000
vt 0.000000 0.000000
vt 0.250000 0.000000
vt 0.923895 0.704758
vt 0.923895 0.295243
vt 0.880408 0.876244
vt 0.500000 0.925949
vt 0.708061 0.920215
vt 0.708061 0.079785
vt 0.076105 0.704757
vt 0.291939 0.079785
vt 0.500000 0.074051
vt 0.929637 0.500000
vt 0.880408 0.123756
vt 0.119592 0.876244
vt 0.070363 0.500000
vt 0.076105 0.295243
vt 0.119592 0.123756
vt 0.500000 0.500000
vt 0.500000 0.750000
vt 0.250000 0.250000
vt 0.500000 0.250000
vt 0.291939 0.920215
vt 0.500000 1.000000
s 0
f 17/1/1 85/2/1 16/2/1
f 34/3/2 24/4/2 11/4/2
f 19/5/3 88/1/3 17/1/3
f 26/6/4 16/2/4 46/7/4
f 19/5/4 30/8/4 49/9/4
f 20/10/4 28/11/4 32/12/4
f 18/13/4 32/14/4 35/15/4
f 38/16/4 17/1/4 16/2/4
f 17/1/4 43/17/4 19/5/4
f 21/18/5 48/19/5 47/20/5
f 27/21/6 46/7/6 48/19/6
f 23/22/7 45/23/7 44/24/7
f 31/25/8 43/17/8 45/23/8
f 22/26/9 53/27/9 52/28/9
f 29/29/10 51/30/10 53/27/10
f 22/26/11 33/31/11 29/29/11
f 29/29/12 32/12/12 28/11/12
f 24/4/13 36/32/13 33/31/13
f 33/31/14 35/15/14 32/14/14
f 21/18/15 39/33/15 27/21/15
f 27/21/16 38/16/16 26/6/16
f 37/34/17 42/35/17 39/33/17
f 39/33/18 41/36/18 38/16/18
f 44/24/19 42/35/19 40/35/19
f 45/23/20 41/36/20 42/35/20
f 23/22/21 50/37/21 31/25/21
f 31/25/22 49/9/22 30/8/22
f 37/34/23 21/18/23 14/18/23
f 24/4/24 22/26/24 13/26/24
f 44/24/25 40/35/25 7/35/25
f 22/26/26 52/28/26 1/28/26
f 23/22/27 44/24/27 6/24/27
f 23/22/28 12/22/28 2/38/28
f 21/18/29 47/20/29 3/20/29
f 40/35/30 37/34/30 8/34/30
f 6/24/31 7/35/31 79/35/31
f 7/35/32 8/34/32 74/34/32
f 14/18/33 3/20/33 72/20/33
f 11/4/34 76/4/34 81/3/34
f 1/28/35 70/28/35 75/26/35
f 12/22/36 6/24/36 80/24/36
f 3/20/37 4/39/37 71/39/37
f 10/3/38 81/3/38 82/40/38
f 9/40/39 82/40/39 84/41/39
f 8/34/40 14/18/40 73/18/40
f 13/26/41 75/26/41 76/4/41
f 2/38/42 12/22/42 83/22/42
f 4/39/43 5/42/43 78/42/43
f 15/41/44 84/41/44 78/42/44
f 60/43/45 62/44/45 66/45/45
f 55/46/46 102/47/46 56/47/46
f 57/48/47 72/20/47 71/39/47
f 62/44/48 74/34/48 73/18/48
f 65/49/49 76/4/49 75/26/49
f 59/50/50 58/51/50 71/39/50
f 61/52/51 60/43/51 80/24/51
f 68/53/52 73/18/52 72/20/52
f 67/54/53 75/26/53 70/28/53
f 64/55/54 63/56/54 82/40/54
f 66/45/55 56/47/55 77/38/55
f 69/57/56 59/50/56 78/42/56
f 61/52/57 79/35/57 74/34/57
f 64/55/58 81/3/58 76/4/58
f 60/43/59 66/45/59 83/22/59
f 63/56/60 69/57/60 84/41/60
f 89/58/4 93/10/4 90/13/4
f 89/58/4 91/5/4 92/59/4
f 87/60/4 89/58/4 90/13/4
f 85/2/4 89/58/4 86/61/4
f 18/13/61 93/10/61 20/10/61
f 2/38/62 91/5/62 49/9/62
f 93/10/63 51/30/63 20/10/63
f 94/41/64 92/59/64 2/38/64
f 94/41/65 97/28/65 1/28/65
f 87/60/66 5/42/66 86/61/66
f 35/15/67 90/13/67 18/13/67
f 85/2/68 46/7/68 16/2/68
f 17/1/1 88/1/1 85/2/1
f 34/3/2 11/4/2 10/3/2
f 19/5/3 91/5/3 88/1/3
f 26/6/4 38/16/4 16/2/4
f 19/5/4 43/17/4 30/8/4
f 20/10/4 51/30/4 28/11/4
f 18/13/4 20/10/4 32/14/4
f 38/16/4 41/36/4 17/1/4
f 17/1/4 41/36/4 43/17/4
f 21/18/69 27/21/69 48/19/69
f 27/21/70 26/6/70 46/7/70
f 23/22/71 31/25/71 45/23/71
f 31/25/72 30/8/72 43/17/72
f 22/26/73 29/29/73 53/27/73
f 29/29/74 28/11/74 51/30/74
f 22/26/75 24/4/75 33/31/75
f 29/29/76 33/31/76 32/12/76
f 24/4/77 34/3/77 36/32/77
f 33/31/78 36/32/78 35/15/78
f 21/18/79 37/34/79 39/33/79
f 27/21/80 39/33/80 38/16/80
f 37/34/81 40/35/81 42/35/81
f 39/33/82 42/35/82 41/36/82
f 44/24/83 45/23/83 42/35/83
f 45/23/84 43/17/84 41/36/84
f 23/22/85 25/38/85 50/37/85
f 31/25/86 50/37/86 49/9/86
f 37/34/23 14/18/23 8/34/23
f 24/4/24 13/26/24 11/4/24
f 44/24/25 7/35/25 6/24/25
f 22/26/26 1/28/26 13/26/26
f 23/22/27 6/24/27 12/22/27
f 23/22/28 2/38/28 25/38/28
f 21/18/29 3/20/29 14/18/29
f 40/35/30 8/34/30 7/35/30
f 6/24/31 79/35/31 80/24/31
f 7/35/87 74/34/87 79/35/87
f 14/18/33 72/20/33 73/18/33
f 11/4/34 81/3/34 10/3/34
f 1/28/88 75/26/88 13/26/88
f 12/22/36 80/24/36 83/22/36
f 3/20/37 71/39/37 72/20/37
f 10/3/89 82/40/89 9/40/89
f 9/40/39 84/41/39 15/41/39
f 8/34/40 73/18/40 74/34/40
f 13/26/41 76/4/41 11/4/41
f 2/38/90 83/22/90 77/38/90
f 4/39/43 78/42/43 71/39/43
f 15/41/44 78/42/44 5/42/44
f 56/47/45 58/51/45 55/46/45
f 55/46/45 59/50/45 54/62/45
f 54/62/45 59/50/45 67/54/45
f 67/54/45 69/57/45 65/49/45
f 59/50/45 69/57/45 67/54/45
f 65/49/45 63/56/45 64/55/45
f 63/56/45 65/49/45 69/57/45
f 59/50/45 55/46/45 58/51/45
f 58/51/45 56/47/45 57/48/45
f 57/48/45 56/47/45 68/53/45
f 68/53/45 66/45/45 62/44/45
f 56/47/45 66/45/45 68/53/45
f 62/44/45 60/43/45 61/52/45
f 70/28/91 97/28/91 96/28/91
f 57/48/47 71/39/47 58/51/47
f 62/44/48 73/18/48 68/53/48
f 65/49/49 75/26/49 67/54/49
f 59/50/50 71/39/50 78/42/50
f 61/52/51 80/24/51 79/35/51
f 68/53/52 72/20/52 57/48/52
f 67/54/53 70/28/53 54/62/53
f 64/55/54 82/40/54 81/3/54
f 66/45/55 77/38/55 83/22/55
f 69/57/56 78/42/56 84/41/56
f 61/52/57 74/34/57 62/44/57
f 64/55/58 76/4/58 65/49/58
f 60/43/59 83/22/59 80/24/59
f 63/56/60 84/41/60 82/40/60
f 89/58/4 92/59/4 93/10/4
f 89/58/4 88/1/4 91/5/4
f 87/60/4 86/61/4 89/58/4
f 85/2/4 88/1/4 89/58/4
f 18/13/61 90/13/61 93/10/61
f 91/5/92 19/5/92 49/9/92
f 49/9/93 50/37/93 25/38/93
f 25/38/93 2/38/93 49/9/93
f 53/27/94 51/30/94 52/28/94
f 52/28/94 51/30/94 1/28/94
f 1/28/95 51/30/95 93/10/95
f 94/41/96 1/28/96 92/59/96
f 1/28/97 93/10/97 92/59/97
f 92/59/98 91/5/98 2/38/98
f 70/28/99 101/62/99 54/62/99
f 94/41/100 99/38/100 103/41/100
f 77/38/101 99/38/101 2/38/101
f 55/46/102 101/62/102 100/46/102
f 77/38/103 102/47/103 98/38/103
f 85/2/104 86/61/104 3/20/104
f 3/20/105 86/61/105 4/39/105
f 4/39/106 86/61/106 5/42/106
f 5/42/107 87/60/107 15/41/107
f 15/41/108 87/60/108 9/40/108
f 9/40/109 90/13/109 10/3/109
f 87/60/110 90/13/110 9/40/110
f 90/13/111 35/15/111 10/3/111
f 10/3/112 35/15/112 34/3/112
f 34/3/112 35/15/112 36/32/112
f 48/19/113 46/7/113 47/20/113
f 47/20/113 46/7/113 3/20/113
f 3/20/114 46/7/114 85/2/114
f 101/62/115 96/28/115 95/63/115
f 95/63/116 98/38/116 102/47/116
f 101/62/117 95/63/117 100/46/117
f 95/63/118 102/47/118 100/46/118
f 98/38/119 95/63/119 99/38/119
f 99/38/120 95/63/120 103/41/120
f 55/46/46 100/46/46 102/47/46
f 94/41/121 103/41/121 97/28/121
f 70/28/122 1/28/122 97/28/122
f 70/28/99 96/28/99 101/62/99
f 94/41/123 2/38/123 99/38/123
f 77/38/124 98/38/124 99/38/124
f 55/46/102 54/62/102 101/62/102
f 77/38/103 56/47/103 102/47/103
f 96/28/125 97/28/125 103/41/125 95/63/125
l 95 97
