# Blender 4.0.2
# www.blender.org
g TableTop_Plane.021
v -137.291565 -2.703093 447.186218
v 259.264343 -2.703093 447.186218
v -137.291565 -2.703093 -258.325134
v 259.264343 -2.703093 -258.325134
v -137.291565 -26.119337 -258.325134
v -137.291565 -26.119337 447.186218
v 259.264343 -26.119337 447.186218
v 259.264343 -26.119337 -258.325134
v -137.291565 -2.703093 -223.770447
v -137.291565 -2.703093 412.631531
v 259.264343 -2.703093 412.631531
v 259.264343 -2.703093 -223.770447
v -137.291565 -26.119337 412.631531
v -137.291565 -26.119337 -223.770447
v 259.264343 -26.119337 -223.770447
v 259.264343 -26.119337 412.631531
v 225.278580 -26.119337 -258.325134
v -103.305801 -26.119337 -258.325134
v -103.305801 -26.119337 447.186218
v 225.278580 -26.119337 447.186218
v -103.305801 -2.703093 -258.325134
v 225.278580 -2.703093 -258.325134
v 225.278580 -2.703093 447.186218
v -103.305801 -2.703093 447.186218
v -103.305801 -26.119337 -223.770447
v 225.278580 -26.119337 -223.770447
v -103.305801 -26.119337 412.631531
v 225.278580 -26.119337 412.631531
v -103.305801 -2.703093 -223.770447
v 225.278580 -2.703093 -223.770447
v 225.278580 -2.703093 412.631531
v -103.305801 -2.703093 412.631531
v -137.291565 -2.703093 391.370880
v -137.291565 -26.119337 391.370880
v 259.264343 -2.703093 391.370880
v 259.264343 -26.119337 391.370880
v -103.305801 -26.119337 391.370880
v 225.278580 -26.119337 391.370880
v 225.278580 -2.703093 391.370880
v -103.305801 -2.703093 391.370880
v -137.291565 -26.119337 -211.516632
v 259.264343 -2.703093 -211.516632
v 225.278580 -26.119337 -211.516632
v -103.305801 -2.703093 -211.516632
v -137.291565 -2.703093 -211.516632
v 259.264343 -26.119337 -211.516632
v -103.305801 -26.119337 -211.516632
v 225.278580 -2.703093 -211.516632
v -98.443878 -26.119337 -223.770447
v -98.443878 -26.119337 -258.325134
v -98.443878 -26.119337 412.631531
v -98.443878 -2.703093 -223.770447
v -98.443878 -2.703093 412.631531
v -98.443878 -2.703093 447.186218
v -98.443878 -26.119337 447.186218
v -98.443878 -2.703093 -258.325134
v -98.443878 -2.703093 391.370880
v -98.443878 -26.119337 391.370880
v -98.443878 -26.119337 -211.516632
v -98.443878 -2.703093 -211.516632
vn -1.0000 -0.0000 -0.0000
vn -0.0000 -1.0000 -0.0000
vn -0.0000 1.0000 -0.0000
vn 1.0000 -0.0000 -0.0000
vn -0.0000 -0.0000 1.0000
vn -0.0000 -0.0000 -1.0000
vt 0.372017 0.024160
vt 0.390605 0.024160
vt 0.390605 0.038831
vt 0.372017 0.038831
vt 0.024160 0.047857
vt 0.024160 0.038831
vt 0.049831 0.038831
vt 0.049831 0.047857
vt 0.024160 0.656883
vt 0.049831 0.656883
vt 0.049831 0.671554
vt 0.024160 0.671554
vt 0.438925 0.024160
vt 0.457513 0.024160
vt 0.457513 0.038831
vt 0.438925 0.038831
vt 0.298026 0.372017
vt 0.323697 0.372017
vt 0.323697 0.386688
vt 0.298026 0.386688
vt 0.438925 0.309026
vt 0.457513 0.309026
vt 0.457513 0.323697
vt 0.438925 0.323697
vt 0.505834 0.024160
vt 0.524421 0.024160
vt 0.524421 0.049831
vt 0.505834 0.049831
vt 0.372017 0.309026
vt 0.390605 0.309026
vt 0.390605 0.323697
vt 0.372017 0.323697
vt 0.372017 0.044033
vt 0.390605 0.044033
vt 0.438925 0.047858
vt 0.457513 0.047857
vt 0.024160 0.395714
vt 0.024160 0.386688
vt 0.049831 0.386688
vt 0.049831 0.395714
vt 0.024160 0.372017
vt 0.049831 0.372017
vt 0.298026 0.395714
vt 0.323697 0.395714
vt 0.298026 0.047857
vt 0.298026 0.038831
vt 0.323697 0.038831
vt 0.323697 0.047857
vt 0.572742 0.024160
vt 0.591330 0.024160
vt 0.591330 0.049831
vt 0.572742 0.049831
vt 0.505834 0.298026
vt 0.524421 0.298026
vt 0.524421 0.323697
vt 0.505834 0.323697
vt 0.298026 0.656883
vt 0.323697 0.656883
vt 0.323697 0.671554
vt 0.298026 0.671554
vt 0.572742 0.298026
vt 0.591330 0.298026
vt 0.591330 0.323697
vt 0.572742 0.323697
vt 0.294353 0.309026
vt 0.298026 0.309026
vt 0.298026 0.323697
vt 0.294353 0.323697
vt 0.294353 0.047857
vt 0.294353 0.038831
vt 0.053504 0.395714
vt 0.053504 0.386688
vt 0.053504 0.372017
vt 0.294353 0.024160
vt 0.298026 0.024160
vt 0.053504 0.671554
vt 0.053504 0.656883
vt 0.505834 0.053504
vt 0.524421 0.053504
vt 0.572742 0.294353
vt 0.591330 0.294353
vt 0.053504 0.651680
vt 0.049831 0.651680
vt 0.298026 0.303823
vt 0.323697 0.303823
vt 0.298026 0.651680
vt 0.323697 0.651680
vt 0.024160 0.651680
vt 0.438925 0.303823
vt 0.457513 0.303823
vt 0.372017 0.299999
vt 0.390605 0.299999
vt 0.024160 0.303823
vt 0.049831 0.303823
vt 0.024160 0.309026
vt 0.049831 0.309026
vt 0.323697 0.309026
vt 0.294353 0.303823
vt 0.049831 0.024160
vt 0.049831 0.323697
vt 0.109656 0.719874
vt 0.109656 0.964396
vt 0.091068 0.964396
vt 0.091068 0.719874
vt 0.954107 0.024160
vt 0.954107 0.280126
vt 0.935519 0.280126
vt 0.935519 0.024160
vt 0.176565 0.719874
vt 0.176565 0.964396
vt 0.157977 0.964396
vt 0.157977 0.719874
vt 0.042748 0.719874
vt 0.042748 0.975840
vt 0.024160 0.975840
vt 0.024160 0.719874
vt 0.024160 0.323697
vt 0.323697 0.323697
vt 0.323697 0.024160
vt 0.024160 0.024160
s 0
f 3/1/1 5/2/1 14/3/1 9/4/1
f 36/5/2 16/6/2 28/7/2 38/8/2
f 9/9/3 29/10/3 21/11/3 3/12/3
f 2/13/4 7/14/4 16/15/4 11/16/4
f 23/17/3 2/18/3 11/19/3 31/20/3
f 12/21/4 15/22/4 8/23/4 4/24/4
f 1/25/5 6/26/5 19/27/5 24/28/5
f 10/29/1 13/30/1 6/31/1 1/32/1
f 45/33/1 9/4/1 14/3/1 41/34/1
f 35/35/4 11/16/4 16/15/4 36/36/4
f 33/37/3 10/38/3 32/39/3 40/40/3
f 1/41/3 24/42/3 32/39/3 10/38/3
f 39/43/3 31/20/3 11/19/3 35/44/3
f 37/45/2 27/46/2 13/47/2 34/48/2
f 4/49/6 8/50/6 17/51/6 22/52/6
f 23/53/5 20/54/5 7/55/5 2/56/5
f 30/57/3 12/58/3 4/59/3 22/60/3
f 21/61/6 18/62/6 5/63/6 3/64/6
f 49/65/2 25/66/2 18/67/2 50/68/2
f 58/69/2 38/8/2 28/7/2 51/70/2
f 57/71/3 40/40/3 32/39/3 53/72/3
f 53/72/3 32/39/3 24/42/3 54/73/3
f 55/74/2 19/75/2 27/46/2 51/70/2
f 56/76/3 21/11/3 29/10/3 52/77/3
f 54/78/5 24/28/5 19/27/5 55/79/5
f 56/80/6 22/52/6 17/51/6 50/81/6
f 60/82/3 44/83/3 40/40/3 57/71/3
f 47/84/2 37/45/2 34/48/2 41/85/2
f 48/86/3 39/43/3 35/44/3 42/87/3
f 45/88/3 33/37/3 40/40/3 44/83/3
f 42/89/4 35/35/4 36/36/4 46/90/4
f 10/29/1 33/91/1 34/92/1 13/30/1
f 46/93/2 36/5/2 38/8/2 43/94/2
f 15/95/2 46/93/2 43/94/2 26/96/2
f 12/21/4 42/89/4 46/90/4 15/22/4
f 9/9/3 45/88/3 44/83/3 29/10/3
f 30/57/3 48/86/3 42/87/3 12/58/3
f 25/66/2 47/84/2 41/85/2 14/97/2
f 49/65/2 26/96/2 43/94/2 59/98/2
f 52/77/3 29/10/3 44/83/3 60/82/3
f 33/91/1 45/33/1 41/34/1 34/92/1
f 30/57/3 52/77/3 60/82/3 48/86/3
f 25/66/2 49/65/2 59/98/2 47/84/2
f 47/84/2 59/98/2 58/69/2 37/45/2
f 21/61/6 56/80/6 50/81/6 18/62/6
f 23/53/5 54/78/5 55/79/5 20/54/5
f 22/60/3 56/76/3 52/77/3 30/57/3
f 20/99/2 55/74/2 51/70/2 28/7/2
f 31/20/3 53/72/3 54/73/3 23/17/3
f 39/43/3 57/71/3 53/72/3 31/20/3
f 37/45/2 58/69/2 51/70/2 27/46/2
f 26/96/2 49/65/2 50/68/2 17/100/2
f 38/101/6 58/102/6 57/103/6 39/104/6
f 58/105/4 59/106/4 60/107/4 57/108/4
f 59/109/5 43/110/5 48/111/5 60/112/5
f 43/113/1 38/114/1 39/115/1 48/116/1
f 8/117/2 15/95/2 26/96/2 17/100/2
f 14/97/2 5/118/2 18/67/2 25/66/2
f 6/119/2 13/47/2 27/46/2 19/75/2
f 16/6/2 7/120/2 20/99/2 28/7/2
g TableBottom_Plane.032
v 225.278580 -26.119337 391.370880
v 225.278580 -26.119337 -211.516632
v -98.443878 -26.119337 391.370880
v -98.443878 -26.119337 -211.516632
v 225.278580 -66.356033 391.370880
v 225.278580 -66.356033 -211.516632
v -98.443878 -66.356033 391.370880
v -98.443878 -66.356033 -211.516632
v 225.278580 -143.342789 391.370880
v 225.278580 -143.342789 -211.516632
v -98.443878 -143.342789 391.370880
v -98.443878 -143.342789 -211.516632
v 225.278580 -236.910110 391.370880
v 225.278580 -236.910110 -211.516632
v -98.443878 -236.910110 391.370880
v -98.443878 -236.910110 -211.516632
v 225.278580 -337.970917 391.370880
v 225.278580 -337.970917 -211.516632
v -98.443878 -337.970917 391.370880
v -98.443878 -337.970917 -211.516632
vn -0.0000 -0.0000 -1.0000
vn -0.0000 -0.0000 1.0000
vn 1.0000 -0.0000 -0.0000
vn -1.0000 -0.0000 -0.0000
vn -0.0000 -1.0000 -0.0000
vt 0.372017 0.676303
vt 0.616539 0.676303
vt 0.616539 0.708243
vt 0.372017 0.708243
vt 0.664859 0.708243
vt 0.909382 0.708243
vt 0.909382 0.769356
vt 0.664859 0.769356
vt 0.372017 0.627983
vt 0.372017 0.372017
vt 0.403957 0.372017
vt 0.403957 0.627983
vt 0.664859 0.676303
vt 0.909382 0.676303
vt 0.639650 0.280126
vt 0.639650 0.024160
vt 0.671590 0.024160
vt 0.671590 0.280126
vt 0.465069 0.627983
vt 0.465069 0.372017
vt 0.539343 0.372017
vt 0.539343 0.627983
vt 0.616539 0.769356
vt 0.372017 0.769356
vt 0.732702 0.024160
vt 0.732702 0.280126
vt 0.372017 0.843630
vt 0.616539 0.843630
vt 0.616539 0.923852
vt 0.372017 0.923852
vt 0.806976 0.024160
vt 0.806976 0.280126
vt 0.909382 0.843630
vt 0.664859 0.843630
vt 0.912408 0.627983
vt 0.667886 0.627983
vt 0.667886 0.372017
vt 0.912408 0.372017
vt 0.619566 0.372017
vt 0.619566 0.627983
vt 0.887199 0.024160
vt 0.887199 0.280126
vt 0.909382 0.923852
vt 0.664859 0.923852
s 0
f 64/121/7 62/122/7 66/123/7 68/124/7
f 65/125/8 67/126/8 71/127/8 69/128/8
f 62/129/9 61/130/9 65/131/9 66/132/9
f 61/133/8 63/134/8 67/126/8 65/125/8
f 63/135/10 64/136/10 68/137/10 67/138/10
f 70/139/9 69/140/9 73/141/9 74/142/9
f 68/124/7 66/123/7 70/143/7 72/144/7
f 66/132/9 65/131/9 69/140/9 70/139/9
f 67/138/10 68/137/10 72/145/10 71/146/10
f 76/147/7 74/148/7 78/149/7 80/150/7
f 71/146/10 72/145/10 76/151/10 75/152/10
f 69/128/8 71/127/8 75/153/8 73/154/8
f 72/144/7 70/143/7 74/148/7 76/147/7
f 80/155/11 78/156/11 77/157/11 79/158/11
f 74/142/9 73/141/9 77/159/9 78/160/9
f 75/152/10 76/151/10 80/161/10 79/162/10
f 73/154/8 75/153/8 79/163/8 77/164/8
