# ProBuilder 5.1.1
# https://unity3d.com/unity/features/worldbuilding/probuilder
# 23/01/2024 08:43:09

mtllib ./PolyShape.mtl
o PolyShape

g PolyShape
v 0 0.05867863 0
v 0.0025177 0.05867863 0.4790268
v -0.5863438 0.05867863 0.3267307
v -0.58881 0.05867863 0.07382965
v -0.42202 0.05867863 -0.1249619
v -0.1981812 0.05867863 -0.1981392
v -0.218998 0.05867863 -0.04445457
v -0.4258461 0.05867863 0.06481171
v -0.4258461 0 0.06481171
v 0 0 0
v 0.0025177 0 0.4790268
v -0.42202 0 -0.1249619
v -0.1981812 0 -0.1981392
v -0.218998 0 -0.04445457
v -0.58881 0 0.07382965
v -0.5863438 0 0.3267307

vt 0 0
vt -0.0025177 0.4790268
vt 0.5863438 0.3267307
vt 0.58881 0.07382965
vt 0.42202 -0.1249619
vt 0.1981812 -0.1981392
vt 0.218998 -0.04445457
vt 0.4258461 0.06481171
vt -0.4258461 0.06481171
vt 0.0025177 0.4790268
vt -0.42202 -0.1249619
vt -0.1981812 -0.1981392
vt -0.218998 -0.04445457
vt -0.58881 0.07382965
vt -0.5863438 0.3267307
vt 0.4307499 0
vt 0.4307499 0.05867863
vt 0 0.05867863
vt -0.4790334 0
vt -0.4790334 0.05867863
vt 0.3622983 0
vt 0.1268015 0
vt 0.3622983 0.05867863
vt 0.1268015 0.05867863
vt 0.1697452 0
vt 0.01465714 0
vt 0.1697452 0.05867863
vt 0.01465714 0.05867863
vt -0.1728773 0
vt -0.4068116 0
vt -0.1728773 0.05867863
vt -0.4068116 0.05867863
vt 0.4350176 0
vt 0.175524 0
vt 0.4350176 0.05867863
vt 0.175524 0.05867863
vt 0.3209977 0
vt 0.06808455 0
vt 0.3209977 0.05867863
vt 0.06808455 0.05867863
vt 0.1223808 0
vt -0.485856 0
vt 0.1223808 0.05867863
vt -0.485856 0.05867863

vn 0 1 0
vn 0 -1 0
vn -0.1504625 0 -0.9886157
vn 0.9999862 0 -0.005255793
vn -0.310736 0 -0.9504963
vn 0.9909508 0 0.1342257
vn 0.467081 0 0.8842145
vn -0.7660745 0 -0.6427518
vn -0.9999524 0 0.009751183
vn -0.2503895 0 0.9681452

usemtl Lit
f 2/2/1 1/1/1 8/8/1
f 7/7/1 6/6/1 5/5/1
f 7/7/1 5/5/1 8/8/1
f 4/4/1 8/8/1 5/5/1
f 3/3/1 8/8/1 4/4/1
f 2/2/1 8/8/1 3/3/1
f 16/15/2 9/9/2 11/10/2
f 15/14/2 9/9/2 16/15/2
f 12/11/2 9/9/2 15/14/2
f 9/9/2 12/11/2 14/13/2
f 12/11/2 13/12/2 14/13/2
f 9/9/2 10/1/2 11/10/2
f 1/18/3 10/1/3 9/16/3
f 9/16/3 8/17/3 1/18/3
f 2/20/4 11/19/4 10/1/4
f 10/1/4 1/18/4 2/20/4
f 6/24/5 13/22/5 12/21/5
f 12/21/5 5/23/5 6/24/5
f 7/28/6 14/26/6 13/25/6
f 13/25/6 6/27/6 7/28/6
f 8/32/7 9/30/7 14/29/7
f 14/29/7 7/31/7 8/32/7
f 5/36/8 12/34/8 15/33/8
f 15/33/8 4/35/8 5/36/8
f 4/40/9 15/38/9 16/37/9
f 16/37/9 3/39/9 4/40/9
f 3/44/10 16/42/10 11/41/10
f 11/41/10 2/43/10 3/44/10

